/* XPM */
static char *result[] = {
/* columns rows colors chars-per-pixel */
"64 64 241 2 ",
"   c #54261E",
".  c #722B1C",
"X  c #5B2927",
"o  c #5B342B",
"O  c #642C24",
"+  c #63272B",
"@  c #673428",
"#  c #6C342B",
"$  c #77382C",
"%  c #672930",
"&  c #6C3934",
"*  c #793C38",
"=  c #744134",
"-  c #7B4334",
";  c #7B443A",
":  c #76483D",
">  c #7E543E",
",  c #7B4A44",
"<  c #7B5B51",
"1  c #843D38",
"2  c #824636",
"3  c #864438",
"4  c #8B433C",
"5  c #844A3B",
"6  c #8B4D3C",
"7  c #924C3D",
"8  c #8B513F",
"9  c #894C45",
"0  c #944C44",
"q  c #944E4B",
"w  c #855646",
"e  c #8D5342",
"r  c #855B46",
"t  c #8B5B45",
"y  c #8D5449",
"u  c #8C5C4C",
"i  c #925443",
"p  c #955B45",
"a  c #9B5A43",
"s  c #93544B",
"d  c #9B5449",
"f  c #945C4B",
"g  c #9A5C4B",
"h  c #8F5C53",
"j  c #945D53",
"k  c #9B5B53",
"l  c #995C57",
"z  c #A2584B",
"x  c #A45B54",
"c  c #A45857",
"v  c #AA5E51",
"b  c #A35D5C",
"n  c #87624A",
"m  c #8A634D",
"M  c #9A6146",
"N  c #95644B",
"B  c #9D624C",
"V  c #8B6555",
"C  c #956354",
"Z  c #9C6353",
"A  c #9A6954",
"S  c #966259",
"D  c #9B645A",
"F  c #956B5C",
"G  c #9C6C5C",
"H  c #95725A",
"J  c #99725A",
"K  c #A4644C",
"L  c #A7684E",
"P  c #A36453",
"I  c #A76357",
"U  c #A56A54",
"Y  c #AB6B54",
"T  c #AB645B",
"R  c #A46C5B",
"E  c #AB6C5C",
"W  c #B26857",
"Q  c #B46D5D",
"!  c #A3715D",
"~  c #AA7759",
"^  c #AB715E",
"/  c #B4745A",
"(  c #B3725D",
")  c #A55D63",
"_  c #8D6E62",
"`  c #936C63",
"'  c #9B7264",
"]  c #9A7768",
"[  c #9A7D73",
"{  c #A56562",
"}  c #AC6564",
"|  c #A46B62",
" . c #AC6E67",
".. c #B76C64",
"X. c #A47363",
"o. c #AC7464",
"O. c #A67B65",
"+. c #A57369",
"@. c #AC766B",
"#. c #A37B6B",
"$. c #AD7B6C",
"%. c #B47364",
"&. c #BA7465",
"*. c #B77A65",
"=. c #B4756A",
"-. c #BB766A",
";. c #B37B6C",
":. c #BC7A6C",
">. c #B76E70",
",. c #AA7B71",
"<. c #BB7371",
"1. c #B47D72",
"2. c #BC7D72",
"3. c #B37F7B",
"4. c #C17C6D",
"5. c #C27D72",
"6. c #CB7F74",
"7. c #C27C7A",
"8. c #9D8378",
"9. c #A58169",
"0. c #A9866B",
"q. c #B7856B",
"w. c #B9906D",
"e. c #AA8373",
"r. c #A98677",
"t. c #B48373",
"y. c #B48777",
"u. c #BD8275",
"i. c #BB847A",
"p. c #B58C7C",
"a. c #BB8A7D",
"s. c #B79678",
"d. c #BEA77A",
"f. c #C0906F",
"g. c #C38175",
"h. c #C08E73",
"j. c #C3847B",
"k. c #C9867B",
"l. c #C4887D",
"z. c #CA897F",
"x. c #C39C76",
"c. c #C9A77C",
"v. c #A88D83",
"b. c #B98882",
"n. c #BC8C82",
"m. c #BC9184",
"M. c #BD9289",
"N. c #BC9988",
"B. c #BB9D91",
"V. c #BCB68E",
"C. c #BDB898",
"Z. c #C38681",
"A. c #C88384",
"S. c #C68B83",
"D. c #CB8D84",
"F. c #CC8E89",
"G. c #D18D87",
"H. c #C3948A",
"J. c #C49589",
"K. c #CC938C",
"L. c #D1938C",
"P. c #CC9592",
"I. c #C49C93",
"U. c #CA9B93",
"Y. c #C89F98",
"T. c #D29692",
"R. c #D49A95",
"E. c #D39798",
"W. c #D49B9A",
"Q. c #CAAC87",
"!. c #C3A28B",
"~. c #D4AF83",
"^. c #C6B78C",
"/. c #CAB98D",
"(. c #D3B589",
"). c #DABC8A",
"_. c #C5A494",
"`. c #CBAA94",
"'. c #C5A59A",
"]. c #CAA59C",
"[. c #C8A898",
"{. c #CBAA9D",
"}. c #D1AF99",
"|. c #C8B895",
" X c #D4B798",
".X c #D49DA0",
"XX c #CDA6A2",
"oX c #CCACA3",
"OX c #D3A3A2",
"+X c #D2ACA4",
"@X c #CEB1A4",
"#X c #CDB1A9",
"$X c #D4B4A3",
"%X c #D9B8A5",
"&X c #D3B5A9",
"*X c #D9B5AC",
"=X c #D6BAAD",
"-X c #DCBAAC",
";X c #DBBDB1",
":X c #DDC28E",
">X c #C9C19B",
",X c #DCC293",
"<X c #DDC99C",
"1X c #E8CB8F",
"2X c #E4CB96",
"3X c #E6CB97",
"4X c #E9CE9A",
"5X c #ECD295",
"6X c #E5D19E",
"7X c #EDD49A",
"8X c #EFDA9C",
"9X c #F3D493",
"0X c #F0D69B",
"qX c #F4DB9E",
"wX c #FADD9D",
"eX c #F7E09E",
"rX c #D0C7AF",
"tX c #D9CEA8",
"yX c #DCD0A8",
"uX c #D5D1B4",
"iX c #D9D5B7",
"pX c #E7CFA0",
"aX c #E5D2A3",
"sX c #EAD5A3",
"dX c #EBDAA6",
"fX c #E3D4A9",
"gX c #EEDDAC",
"hX c #F2D7A0",
"jX c #F7DEA3",
"kX c #F8DEA4",
"lX c #F5DEAB",
"zX c #F8DCAA",
"xX c #E3D9B6",
"cX c #EDDDB3",
"vX c #F2DEB1",
"bX c #EFE1AF",
"nX c #F5E1A3",
"mX c #F9E0A4",
"MX c #F3E1AC",
"NX c #FAE2AA",
"BX c #F2E1B1",
/* pixels */
"zXkXkXkXlXkXkXjXjXjXjXMXjXkXkXjXwXjXjXjXeXjXwXjXjXwXjXjXjXjXwXjXjXjXmXwXjXnXjXwXkXkXkXjXwXhXnXnXMXnXnXnXnXmXwXwXwXeXeXeXeXeXnXnX",
"zXkXkXkXjXjXjXkXjXkXkXjXkXkXjXjXjXwXjXjXjXjXjXmXmXjXjXnXjXjXjXjXjXwXjXeXjXjXjXjXjXjXjXjXnXnXwX0XdXnXdXnXnXjXwXqXeXqXwXeXqX8XnX8X",
"lXkXkXkXjXkXkXkXjXkXjXjXkXkXkXjXkXkXjXjXjXjXjXjXwXjXjXwXzXjXjXwXjXmXwXmXjXjXjXnXnXkXjXkXmXjX0X5X8XqXeXnXjXqX7X5XeXkXjXnXnXnXnXnX",
"lXjXjXjXjXjXkXlXlXkXkXjXkXlXjXjXkXkXkXjXwXnXjXjXjXjXjXjX3X(.Q.`.}.`.`. X6XhXwXjXwXjXjXjXjXqX0X5X8X0X0XqXjXhX7X7XjXkXjXhXeXeX8XeX",
"zXzXjXjXkXkXjXjXkXjXkXkXjXnXkXkXjXjXjXjXjXwXjXjXjXhX3X}.$X$X%X%X-X-X%X$X}.{. X7X8X8XhXqX7X5X5X5X9X9X9XqXzXkXlXlXMXBXlXlXnXjXjXwX",
"zXjXjXjXkXkXjXkXjXjXkXkXjXjXkXjXwXjXjXjXjXjXjXqX,X}.$X%X-X-X-X;X-X;X*X*X*X$X}.{. X<XjXqX0X5X0XwX9X9X0XhXzXlXvXvXcXcXcXlXMXMXNXmX",
"zXjXjXjXkXkXjXjXjXjXlXnXkXjXjXlX0XqXqXjXjXjX X`.`.}.%X%X-X-X-X-X;X;X*X*X+X+X@XoX{.[.$XjXwXqXjXjXwXwXwXjXlXcXxXxXyXyXtXyXpXsXhXjX",
"zXzXjXzXkXkXkXjXkXlXjXjXjXjXkXkX0X0XjXzX3XQ.`.{.{.$X%X=X-X=X;X;X;X-X*X*X+X+XoX&X#XoX'.'.3XnXjXjXwXwXwXlXcXcXxXxXuXuXtXtXfXgXlXBX",
"lXnXkXjXjXkXnXlXhXnXkXkXkXjXjXjXjXjX4XQ.Q.`.}.|.$X=X=X=X;X;XrX;X;X*X&X&X+X+X+X+X{.oX'.'.B. XjXmXkXqXNXBXd.V.uXiXuXuXC.|.|.^.aX6X",
"lXjXjXjXkXkXkXjXkXkXnXmXkXkXkXkXjX:Xs.N.!._.}.@X@X@X&X;X;X*X*X&X*X+X+X&XoXXXOX+XXX'.oX'.'.N.!.7XjXqXNXMX>X>XuXrXuXuXC.|.|.^.aXaX",
"zXzXkXjXjXjXjXkXkXjXjXhXkXkXlXkXQ.s.s.s.N.I.!.[.|.@X@X=X=X=X&X@X#XXX+XoXoXoXXX+XXX'.'.B.B.I.p.N.4XkXdXbX6X<X>XC.C.>XC.V././.aXsX",
"zXkXkXkXlXjXjXjXlXjXhXjXhXlXjX).0.p.p.p.s.N.!.`.{.{.@X].{.oXoXoXXXoX#X#X].oXXXY.I.I.B.{.n.B.y.p.B.jXnXbXdXyX>X^.V.|.C.C././.aXsX",
"zXkXkXkXlXkXkXkXmXnXkXkXmXnXkX0.9.r.y.p.m.N.!.[._._.oX@X].{.{.'.oXoX#XoX'.'.oXoXI.M.M.H.M.n.t.e.N.|.8XMXMXMXyXyXfXfXfXsXsX6XlXMX",
"zXkXjXkXjXkXjXjXjXkXkXjXhXjX:X9.0.e.w.r.p.a.a.s.!._._.'.].].I.I.'.'.oX#X#X'.XXoX].M.a.J.M.t.t.$.r.B.2XnXdXnX6XdXsXaXsX7X6X6X0XqX",
"zXkXjXjXjXjXkXkX7XhXjXqX8X5XQ.9.0.e.9.q.q.y.a.m.J.I.I.I.I._._._.B.I.oX'.@X'.J.].'.I.b.b.p.1.;.$.e.v.Q.eX5X5X5X6XlXjXzXzXjXkXmXNX",
"zXkXkXlXjXkXjXkX7XqXnXqX0X1Xs.9.9.e.e.O.o.( ( ;.y.M.I.H.I.H.Y.I.B.'.'.'.I.'.H.M.I.M.M.i.2.2.:.@.O.r.s.eX1X5X5X3XkXjXkXjXwXwXwXkX",
"lXkXjXjXjXjXlXkXkXkXjXjXjXjXw.9.9.9.O.R ^ Y %.*.g.g.l.H.J.J.K.I.I.I._.'.'.H.H.Z.a.a.n.j.:.-.%.=.G [ e.jXjXjXkXjXhXnXnXNXNXmXkXjX",
"lXkXjXjXjXjXkXkXlXjXjXkXkXsX9.J ] ] X.o.( ( / &./ &.u.h.S.K.J.K.P.K.U.P.K.P.I.F.S.S.Z.g.g.&...o.X.[ [ hXlXjXkXkXzXnXhXkXkXkXkXjX",
"zXjXzXkXjXjXjXjXkXkXjXjXkX<XO.H ' ] ' Y L / Q / 4.4.6.k.F.D.K.L.S.K.F.K.P.P.T.T.K.K.D.j.j.:.%.%.R [ 8.6XkXjXkXkXmXkXhXhXhXjXkXkX",
"zXjXkXkXjXjXjXjXnXjXkXjXkX/.] H H H N P Y W / &.4.g.g.f.k.D.D.D.L.G.D.F.P.K.E.W.L.K.D.Z.g.g.-.E G ' [ 7XjXjXjXkXkXkXqX8XjXjXkXkX",
"lXkXkXkXjXjXjXzXjXjXlXkXnX).H m m N M 7 K / / -.g.g.k.z.z.D.G.L.G.G.L.L.T.T.G.W.E.P.F.j.j.g.:.X.| [ [ 6XkXkXnXkXzXjXhXjXjXkXkXkX",
"zXkXhXjXdXjXzXjXjXkXkXkXkX/.H m < n M M K / / / g.k.z.G.L.L.L.T.R.R.W.T.W.W.W.W..XP.K.Z.5.u.;.X.' [ [ jXkXkXlXjXjXjXjXjXkXkXjXjX",
"lXjX0X0XjXzXkXjXjXjXjXkXjX,XH n 8 n M L K Y ( &.g.k.6.k.z.L.L.R.R.R.T.R.T.W.W.W..XW.K.l.j.2.@.o.' ` 0.jXkXkXjXjXjXjXjXjXkXkXkXjX",
"zX0X5X7X0XjXjXjXkXkXlXjXjX<XH n > 8 8 M K L Y Y / 4.k.k.k.G.F.L.L.G.L.R.T.P.U.W.W.P.K.l.u.2.o.X.G _ V.jXkXkXjXkXlXjXjXjXjXkXkXlX",
"zXkXkXkXjXkXjXlXkXjXkXjXkX,XH t > t M p K L K L / g.g.z.D.k.D.D.G.G.G.D.L.T.L.R.E.P.S.Z.;.%.o.X.` _ /.kXMXkXkXhXkXkXjXjXjXkXkXkX",
"zXzXkXkXjXjXjXjXkXkXjXjXjX:XJ m n n M p N L L K Y / 4.k.k.G.6.k.D.G.L.G.z.D.D.K.F.F.Z.2.=.E o.! ' V 2XkXjXkXkXkXkXhXjXhXjXlXjXjX",
"lXjXjXjXkXkXjXjXlXjXjXjX8X,XJ V n n M M B L Y L W / 4.4.g.g.k.g.g.k.z.z.z.z.z.S.S.j.:.-.( R ! ! ` _ :X5X7XqXjXkXkXnXkXjXkXmXkXlX",
"lXjXkXjXkXlXjXkXjXjXjXjX/ E Z m n 8 M M K L L L W / / Q 4.:.6.4.4.4.g.k.g.j.g.l.j.2.*.%.^ ^ R ! ] _ :X5X7XqXkXmXhXkXkXkXhXhXkXnX",
"zXzXkXjXlXkXjXjXjXjXnXmXa Z N m n n M M U L K L / Q Q Q &.:.5.4.-.4.4.g.g.g.g.:.:.:.=.o.E ^ ! ! #._ r.w.7X0X0X0X7XhXjXhX7X7XqXkX",
"zXkXjXkXjXkXkXkXjXjXhXjXK i A F n M M B U K L K ^ ( %.&.&.&.2.:.:.:.4.:.g.:.:.:.-.;.;.^ $.^ ! X.v.[ @.w.7X7X7X5X7XhXkXjX8X7X8XkX",
"zXjXkXkXjXjXjXlXjXhXqX7XY K N n r t K M U L Y L L ;.i.u.4.:.g.j.g.4.g.*.-.<.:.5.2.2.2.o.$.Y o.o.r.[ +.x.kXlXmXNXhXnXkXkXjXhXkXzX",
"zXjXkXjXkXjXkXjXlXhX8X5X/ 7 8 r m M P B U U U Y U %.u.=.-.:.:.g.g.4.:.:.g.l.l.l.j.u.1.;.t.o.@.X.r.r.P c.jXkXkXkXmXnXjXkXkXkXkXkX",
"kXjXjXjXjXjXwXjXjXjXjXjXq.. . w H B B Z P K K Y E ^ %.:.g.k.j.D.D.l.4.5.j.l.l.S.S.i.1.1.t.@.@.o.e.[ P 2XjXjXjXjXjXmXwXjXjXjXwXjX",
"lXwXjXjXjXjXnXjXjXwXjXjXc.$ $ y J B Z U B Z P %.^ ! ^ E %.&.:.g.l.l.2.g.j.g.u.2.2.;.;.1.3.1.1.+.e.v.E jXjXjXjXwXwXjXjXjXnXjXnXjX",
"kXjXwXnXwXnXjXjXjXjXwXwXc.7 1 f B B Z U A g a ! $.^ @.Q E T E ( :.u.-.2.:.-.%. .=.1.2.1.,.,.,.+.e.v.w.jXjXjXwXjXjXjXwXnXnXjXjXjX",
"kXjXjXjXjXjXnXwXwXmXwXwX1Xz 5 g g B U P G C w u F G X.E S g 7 8 W -.v %.E P } =.<.-.3.,.+.| +.+.,.G (.kXjXjXjXjXjXmXjXjXjXjXjXwX",
"kXjXjXjXwXnXjXjXjXeXjXjX5XK z g f B E o.A A r u V n < < , : # @ g o.6 d d 5 C Z | #.#.] G ` +.,.+.0 5XzXqXjXjXjXjXjXjXjXwXjXnXjX",
"zXjXwXjXjXjXjXjXjXjXjXjXmXf.Z p e B ! t.O.A w t t w u S w * @ $ g *.} 5 O & , ` [ 8._ ` F ' ,.@.| %.jXjXqX0XqXqXjXwXnXjXjXjXjXwX",
"kXjXjXjXjXjXjXjXwXjXwXnXjX~.a i p g U q.t.! N - = : , , @ o - 8 E l.u.S @ X : 5 h ` ' V ] ,.1.| D c.kXjX0X0X5X0XjXnXwXjXjXjXjXjX",
"kXwXmXjXnXwXjXjXnXjXjXjXjX5Xz i y g B ;.t.t.0.X.r = o & , h N k u.K.l.+.u & o o , w y V ,.b.1.R R 4XjX0X5X5X5X5XjXwXjXnXjXwXjXnX",
"7X5X5X5X7X0XqXkXkXqX8X0XqXjXw.P e i a ^ $.t.q.t.o.X.S f D @.E Y j.P.Z.1.+.l 9 , , ` v.b.n.m.$.G x.0XwXjXkXwX0X7X8X0XqXjXnXjXjXwX",
"6X5X5X5X0XqXjXkXkXqXqX8XjXjX0X*.i 8 8 f ^ ;.t.;.=...E R -.2.E W 2.S.l.<.b.3.>.+.3.b.M.b.M.b.X.G (.qXjXjXjXjXqX8X0XqXwXjXkXjXjXjX",
"7X7X5X0XqXjXjXmXjXwXqXwXjXjXkX0X~ 6 6 M U o.:.t...>.4.4.&.%.I v &.Z.2.<.i.S.b.2.3.b.3.b.i.,.D G :XwXmXjXkXjXwXqXjXwXjXjXjXjXjXjX",
"0X0XqXqXqXjXjXkXjXjXjXjXjXmXmXjX:X8 6 p P P &.:.4.4.4.4.-.T I v T A.7.<.<.7.A.7.7.Z.Z.3.;.R S s.jXjXjXjXjXjXjXnXjXjXmXjXjXwXjXjX",
"jXwXwXwXjXjXjXwXjXjXwXjXkXnXjXwXqX~ 6 8 g U %.-.4.4.4.W v 0 0 v Q A.A.>.b 5.7.7.j.7.<.=.| C Z 7XjXwXjXhXjXjXjXjXjXmXjXnXjXnXjXjX",
"jXjXjXjXjXjXwXjXjXjXnXjXjXjXjXnXnX~.8 i p B T Q ..4.v z 7 0 0 z ..A.A...1 c ..7.j.2.-.@.| C F qXjXjXjXnXwXjXjXwXmXjXjXjXjXjXjXjX",
"zXkXjXmXjXjXjXjXwXmXjXmXjXjXjXjXnX3X8 8 g g v I W v z 1 1 c c v ..7.7.} q 1 ) 4.:.-...| | S s.nXjXjXnXwXjXjXjXjXjXjXwXjXjXjXjXwX",
"lXkXjXjXjXjXjXmXjXjXjXnXhXwXjXjXkXjXN 2 i g a z v z 0 d 4 z T c 4.7.7.) ) 9 0 v b ..{ | S S :XwXjXjXkXjXkXjXjXjXjXwXjXmXjXjXjXmX",
"jXjXjXlXkXkXjXjXjXjXkXkXkXjXkXjXkXkXc.5 8 i a d d 0 d E k * 4 z ..>.>.) l ) 0 q b x D S f G wXwXjXkXNXmXkXhXkXkXmXkXjXhXkXkXlXkX",
"zXjXkXkXkXjXjXjXkXjXkXkXkXkXjXjXkXjXhXN - 5 i i 7 d v T T 0 3 $ 1 9 q l { >.l 0 k l S S u s.mXeXmXjXhXjXlXkXMXkXlXkXkXlXlXkXkXkX",
"zXjXkXjXjXwXwXjXjXkXhXjXjXjXkXjXjXjXnX~.5 5 5 8 6 d x P T k 9 9 * * s I  .>.{ q d D S C 9.,X5X5XkXqX7X7XhXmXnXhXjXkXkXkXjXjXkXkX",
"zXqXjXjXnXjXjXjXjXjXnXnXjXjXnXjXnXjXjXqX8 5 5 5 9 y i i j I s s 9 9 l { +.{ ' l j D S J 6X6X5X5XkXqX7X7XhXkXkXwXjXkXkXkXjXjXhXkX",
"zXqXqXeXnXmXnXeXeXnXnXwXwXeXnXwXeXjXwXwX0.5 6 8 2 - = 2 5 f y 0 9 9 q l ` j l l S D D s.fX6X8X5XmXkXqXhXnXmXjXjXjXjXjXjXhXjXjXjX",
"zXwXqXwXnXmXeXqXnXhXwXwXhXnXwXnXjXeXnXnX:X5 8 8 5 #   X X O # $ 9 * * , & = 9 u l D ] >XfX6X7X6XhXhXwXjXjXjXwXqXjXjXqXwXnXnXjXjX",
"kXjXwXnXeXqX8X5XwXjXeXjXnXhXwXjXqXeXwXeX9X5 6 8 6 $ ; 6 * # + + % % % * 9 , ; y C D |.aXsXaXjXjX8X5X7X5X7X0X0X8XjXwX7X0XwXjXjXjX",
"zXwXqXqXwXwX5X1XnXwXjXeXeXwXjXeXqXwXmXeXeXd.- - 2 5 6 6 y l ) ) ) ) ) { l k s f j O.fXdXaX3XlXkX5X5X5X5X7X0X0X8XjX8X5X7XqXjXjXwX",
"kXeXhXwXwXnXhXwXwXqXwXeXjXeXjXwXjXnXwXhXnXeXc.= 2 5 6 2 1 6 s x ) ` k s s k g j j  X6XsXjXjX0X5X5X5X7X7X7X8XhXkXjXjXjXkXjXjXjXnX",
"zXnXnXjXjXwXnXjXjXnXjXjXjXwXnXhXkXhXjXwXjXeXjX:XN 2 $ # # O O O # % # ; y s q u Q.sX7XqXjXhX0X9X5X0XqXqXqXqXjXjXjXjXjXjXjXjXjXjX",
"zXjXnXjXkXjXlXjXnXjXjXjXkXjXnXnXkXjXjXkXkXjXjXjXwXc.B 6 - # O + # ; 3 9 y y C 2XjXjXkXnXkXjXwXwXqXjXkXjXhXjXjXkXjXkXkXkXlXjXkXkX",
"kXjXjXkXjXkXjXkXjXkXkXkXkXkXkXjXjXkXkXkXkXkXkXkXnXnXjX).w.0 0 c ) } l l l x.hXkXjXkXmXmXjXjXwXkXjXkXlXkXkXjXlXkXkXkXkXjXkXjXkXkX",
"zXkXkXlXlXkXkXjXkXkXkXkXkXkXjXlXkXjXlXkXkXkXkXlXkXkXkXkXkXsX~.q.I  .w.~.7XwXjXjXqXwXjXhXqXeXqXkXkXzXkXlXkXkXlXkXlXjXkXzXkXkXlXjX",
"zXkXkXkXjXkXkXkXkXlXkXkXkXkXkXkXjXzXkXkXlXkXkXkXkXkXkXlXkXkXkXkXkXkXlXkXjXjXwXwXwXwXwXqXeXhXhXjXzXjXzXjXkXzXzXkXjXjXzXjXlXkXzXjX",
"zXkXjXzXjXzXjXkXzXjXlXkXlXkXlXkXjXjXjXzXjXjXzXjXkXlXkXkXlXkXlXkXkXjXkXkXjXjXjXwXmXeXnXnXnXnXnXjXlXzXjXzXzXzXlXzXzXzXzXzXkXlXzXzX",
"lXcXvXvXvXvXvXvXvXcXcXlXvXvXlXcXvXvXcXvXvXvXvXvXvXvXvXcXlXvXvXBXcXbXbXgXMXMXMXbXMXdXbXbXBXBXbXvXvXvXvXcXvXvXvXvXvXcXvXvXvXvXvXcX"
};
