/* XPM */
static char *result[] = {
/* columns rows colors chars-per-pixel */
"64 64 238 2 ",
"   c #29150B",
".  c #341A0F",
"X  c #3C1C0E",
"o  c #2F1E13",
"O  c #341C12",
"+  c #3C1F12",
"@  c #3D2114",
"#  c #3D2419",
"$  c #39291B",
"%  c #2D2522",
"&  c #432414",
"*  c #492715",
"=  c #4D2A16",
"-  c #42261A",
";  c #452A1C",
":  c #4B2B1B",
">  c #532C17",
",  c #542E1A",
"<  c #592F19",
"1  c #56311C",
"2  c #5B331D",
"3  c #62371E",
"4  c #442B20",
"5  c #4A2E21",
"6  c #4D3325",
"7  c #423328",
"8  c #543323",
"9  c #5C3622",
"0  c #5D3924",
"q  c #563728",
"w  c #553B2B",
"e  c #5C3C2B",
"r  c #553A30",
"t  c #623722",
"y  c #643A25",
"u  c #683B27",
"i  c #653D2B",
"p  c #693E2B",
"a  c #663D31",
"s  c #4F402C",
"d  c #5E412D",
"f  c #5B4432",
"g  c #6B4027",
"h  c #63412D",
"j  c #6C422C",
"k  c #72442F",
"l  c #734A2E",
"z  c #634433",
"x  c #6C4432",
"c  c #6B4934",
"v  c #654838",
"b  c #6C4B3A",
"n  c #724633",
"m  c #744B35",
"M  c #7B4C35",
"N  c #71463B",
"B  c #744C3A",
"V  c #7C4D3C",
"C  c #69543D",
"Z  c #7B5336",
"A  c #75513B",
"S  c #7A5538",
"D  c #7B523C",
"F  c #594541",
"G  c #774B42",
"H  c #6C5042",
"J  c #745343",
"K  c #7C5343",
"L  c #77574D",
"P  c #785948",
"I  c #7D5C4B",
"U  c #7B654C",
"Y  c #814F3C",
"T  c #85543A",
"R  c #83533D",
"E  c #835B3E",
"W  c #87603E",
"Q  c #835545",
"!  c #875647",
"~  c #8A5543",
"^  c #845B45",
"/  c #835B4B",
"(  c #8A5B4C",
")  c #915D4D",
"_  c #835D51",
"`  c #8C5E53",
"'  c #935E51",
"]  c #8B6444",
"[  c #896648",
"{  c #91674B",
"}  c #95714F",
"|  c #846352",
" . c #8C6352",
".. c #876B55",
"X. c #8C6C5B",
"o. c #936353",
"O. c #976759",
"+. c #94655A",
"@. c #9C6B5B",
"#. c #8A7759",
"$. c #987557",
"%. c #9E7A59",
"&. c #A06A5C",
"*. c #A1765B",
"=. c #8F6C60",
"-. c #9D6B62",
";. c #9A7666",
":. c #9B7D65",
">. c #9B7C75",
",. c #A47364",
"<. c #A97367",
"1. c #A87467",
"2. c #A47B6B",
"3. c #AC796D",
"4. c #A37D71",
"5. c #AB7B71",
"6. c #B27E71",
"7. c #95835D",
"8. c #A5825D",
"9. c #9D8664",
"0. c #9E8075",
"q. c #AC8964",
"w. c #A3846B",
"e. c #A68968",
"r. c #B28E69",
"t. c #A9926C",
"y. c #B2926D",
"u. c #AA8777",
"i. c #B38375",
"p. c #B8877A",
"a. c #BC8A7D",
"s. c #AE927B",
"d. c #B49473",
"f. c #B69777",
"g. c #BC9C76",
"h. c #BC9C7B",
"j. c #BEA37A",
"k. c #BCA87B",
"l. c #C2897E",
"z. c #C09F7D",
"x. c #C4A77B",
"c. c #C3A57D",
"v. c #C5AB7F",
"b. c #BC8C83",
"n. c #AE9386",
"m. c #BC9C84",
"M. c #B1958C",
"N. c #B99588",
"B. c #BEA383",
"V. c #BCB68E",
"C. c #BDA495",
"Z. c #BDB898",
"A. c #C28D83",
"S. c #C49385",
"D. c #C4958A",
"F. c #CA9989",
"G. c #D19B8D",
"H. c #C69A92",
"J. c #CB9D93",
"K. c #D19E93",
"L. c #C5A384",
"P. c #C4AB84",
"I. c #CAAD84",
"U. c #CBA28A",
"Y. c #C5AA8B",
"T. c #CBAD8C",
"R. c #D4AD8E",
"E. c #CCB385",
"W. c #C5B288",
"Q. c #CCB48B",
"!. c #CBB98C",
"~. c #D4B58A",
"^. c #D9B48F",
"/. c #D3BC8C",
"(. c #C7A896",
"). c #C4AC9C",
"_. c #D3A493",
"`. c #D5AC94",
"'. c #D4A59B",
"]. c #D9AA9A",
"[. c #CCB494",
"{. c #C8B996",
"}. c #D7B795",
"|. c #DDB39C",
" X c #E2BC9D",
".X c #C6ACA1",
"XX c #DAADA5",
"oX c #CDB6A7",
"OX c #D7B9A4",
"+X c #DBBDB4",
"@X c #E3BBA4",
"#X c #E2B5A8",
"$X c #E5B8B1",
"%X c #D7C08F",
"&X c #DAC18E",
"*X c #C9C19B",
"=X c #DEC493",
"-X c #D8C597",
";X c #E7CD8F",
":X c #E2C694",
">X c #E3CB95",
",X c #E6CC97",
"<X c #ECD295",
"1X c #E5D19E",
"2X c #EDD49A",
"3X c #EFDA9C",
"4X c #F3D493",
"5X c #F0D79B",
"6X c #F4DB9E",
"7X c #FADD9E",
"8X c #F6E09E",
"9X c #CAC7A9",
"0X c #D8C8A8",
"qX c #DCD0A8",
"wX c #DBC3B2",
"eX c #DCC9B6",
"rX c #D5D1B4",
"tX c #D9D5B7",
"yX c #E8C3A8",
"uX c #E5D2A3",
"iX c #E8D6A7",
"pX c #EFDDAC",
"aX c #F7DEA3",
"sX c #F8DEA4",
"dX c #F5DEAB",
"fX c #F8DCAA",
"gX c #E8C6B8",
"hX c #E3D9B6",
"jX c #EDDDB3",
"kX c #F2DEB1",
"lX c #EFE1AF",
"zX c #F5E1A3",
"xX c #F9E0A4",
"cX c #F3E1AD",
"vX c #FAE2AA",
"bX c #F2E1B1",
"nX c #E6CDC3",
"mX c #F4CFC3",
/* pixels */
"fXsXsXsXsXaXdXaXsXaXaXzXdXsXsXaX7XaXaXaXaXaXaXaXaX7XaXaX8XaXaX7XxXaXaXaX6X6XxXaXxXsXxXaXaX7XzXxXvXzXzXzXxXzX7X7X7X8X8X7X8X8X8XzX",
"fXsXsXsXaXaXsXsXaXaXaXaXsXsXaXsXaXsXaX7XaXaX7XaXzXaXaXaXaXaXaXaXaXaXxX8XxXxX6XaXaXaXaXaXaXaX6X5XaXiXzXzXxXaX7X6X7X6X6X6X6X8X3X8X",
"dXsXsXsXsXaXsXdXsXsXsXsXsXsXaXaXsXsXaX7X7XaXaXzXaXaXzX7XxXaXaXaX6XxXxXxX6XxXxXxXxXaXaXsXzXaX5X<X3X3X3XzXaX6X2X>XzXaXzXzXzXzXzXzX",
"dXaXaXaXaXaXsXaXaXdXaXaXaXdXaXsXzXxXaXsXxXaXaXaX8XaXaXaX6XaXaXaX2X>X=X2X6XaXxX6X6XaXaXaXaX6X5X<X3X3X6X8XsX5X2X2XaXaXaXaXzX8X8X8X",
"fXfXaXaXsXsXaXsXsXzXsXaXaXaXzXsXaXaXzXaXaXaXaXaXaXaXaXaXaX<X!.k.B.P.V.W.W.!.=X>X3X3X6X6X2X<X2X4X;X4X4X6XaXfXdXdXbXcXdXdXaXzXaXaX",
"fXaXaXaXsXsXaXaXsXaXaXsXsXaXaXsX6XaXsXaXaXaXaXaXaXaX2X/.P.B.P.Y.Y.Y.(.{.OXOX{.{.!.&X>X6X2X<X5X6X4X4X6X5XdXdXkXjXjXjXjXjXdXdXvXxX",
"fXaXaXaXsXsXsXsXaXaXdXsXaXaXdXsX5X6X7XaXaXaXaX6X2X/.P.P.j.f.m.m.m.m.C.(.).(.OX0XOXOX[./.>X6XaXaX7X7X7XfXdXjXjXhXqXqXqXuXuXuXiXaX",
"fXfXaXfXsXsXaXaXsXdXaXsXaXsXaXsX5X6X6XsXxXaX3X-X~.Y.j.y.e.9.9.0.0.n.n.n.C.C.).oXoX0XwX0X{.:XaX6X7X7XsXfXkXjXhXhXrXrX0XqXiXpXdXfX",
"dXaXsXsXdXaXsXaXaXaXaXsXaXaXaXaXaXaXzXaXxX3X/.}.I.d.w.9.:.:.:.;.9.>.0.u.n.C.)..X.XoXwXwXwX{./.aXsX5XvXcXk.V.rXtXrXrXZ.Z.!.!.1X1X",
"dXaXsXdXsXaXaXaXsXaXsXaXsXsXsXaX6XaX7XaX,XQ.}.Q.m.f.u.9.;.....| U X.#.;.0.u.n.M.C.C..XoXeXeX{.Y.5X6XcXlX%X*XrX9XrXrXZ.{.{.W.uXuX",
"fXsXaXaXsXsXsXaXsXaXaXaXsXsXaXsX6XaXaX2X~.}.yXOXY.s.w.u...| I I I I L | =.>.w.n.C.C..XoXwXeXwXoX}.>XzXlXqX-X*XZ.Z.9XV.Z.!.!.uXuX",
"dXsXaXsXaXaXsXsXsXaXiXaXaXdXaXaXaXaX2XI.P.[.[.B.t.s.u.$.U P J P _ K G K ! _ X.>.n.M..XoXwXnXeXoX[.W.!.lXlXqX*X!.V.{.V.Z.!.!.uXiX",
"fXsXsXsXaXsXaXdXsXaXfXaXsXaXaXaX8X6XQ.c.L.Y.B.m.m.s.X.P P I I L P Q K V D P / X.;.>.n.).+XnXnX+X+XOXW.%XpXlXqXqXuXhXiXiXuXuXdXvX",
"fXsXsXsXaXsXaXaXaXaXaXfXaXaXuXaX6X/.c.I.T.h.B.n.s.| I U I I I J B B m c n Y ~ ) ! ` -.b..X.XnXnXeXwX0X!.%XzX1XiXuXuXuX2X1X1X2XaX",
"dXsXsXaXsXsXsXsX5X5XaX5X5X<X<X2X=Xx.c.c.y.m.L.m.w.U J J J J P G B x i k M M ~ ~ ' &.,.p.b.b.H.+XwXwXwXOXE.2X>X<XaXaXfXfXaXsXsXvX",
"dXdXaXaXsXsXsXsX2X6XaXaX5X,X<X2Xv.c.d.d.m.D.s.;./ B b b b H J L x i u j M Y T ~ ' &.,.6.b.b.D.J.XX].gX*XE.4X<X,XdXaXaXaX7X7X7XsX",
"fXsXaXaXaXsXsXsXaXaXsXdXsXsXaX=Xj.f.e.m.h.:. .[ S v d d v C L v i y i g k T R T ' &.<.6.l.A.A.G.J.`.|.[./.6XaXsXaXsXaXfXfXsXaXaX",
"fXsXaXaXaXaXaXsXaXsXaXaXsXaXaXE.g.y.f.f.O.[ S c l d h z v v H e 9 t t y g V R V ) &.6.l.l.l.A.G.G.G.'.R.,XaXsXsXsXaXaXaXaXaXsXaX",
"dXaXfXaXaXaXaXaXsXsXsXaXaXsX1Xx.d.y.y.$.[ E A c h d 0 d e d z 0 8 9 t 9 y k M V Y ' 6.A.A.G.D.K.].G._.^.:XaXaXaXsXaXaXaXaXaXsXsX",
"fXfXaXaXaXaXaXsXdXaXaXaXaXaXE.c.y.q.} [ S S m m j d d s q d f 9 2 9 9 9 t y p k Y ~ -.6.l.D.'.XX#X|.].|.^.aXfXaXsXsX3X3X5XaXsXsX",
"dXfXfXaXaXaXaXdXsXsXsXaXaX2Xx.z.y.%.] E S S D A c d 8 8 d w q 1 1 1 2 0 y u u t k ~ ) <.D.K.XX$X$X$X$X#X^.7XaXaXaXaXaXaXaXsXsXsX",
"fXaX6XaXaXaXaXaXsXsXaXsXaX:Xx.z.q.} [ E ] D S c h w 8 w d q 1 1 > 1 1 1 t p m g Y Y ) <.6.J.XXnXmXmXfX@X X,XfXsXaXaXaXaXaXfXaXaX",
"fX6X5X5X5XfXdXaXsXsXfXaXaXE.c.d.%.{ ^ E S ^ K A h d e w w 8 2 0 2 1 1 1 t u p u p Y ) &.6.H.XX$XgXmXmXgX X;XsXaXdXaXaXaXsXsXaXsX",
"fX5X2X5X5XaXfXaXaXaXaXaX2XE.c.q.} ] { E M A A v h d q e 0 0 0 0 i 0 1 2 3 3 u p p M T &.i.D.XX#X$X$XgXyX X XsXsXaXaXaXaXaXsXsXdX",
"fXsXsXsXsXaXaXsXaXaXaXaX/.v.g.8.} } { M p x z z d e q d h 1 1 2 y 0 0 y t 9 y y y n ' 3.6.b.H.'.XX#X@X@XyX}.aXaXaXaXsXsXsXaXaXsX",
"fXsXsXsXaXaXdXsXsXsXxXiXI.c.d.*.{ T , , i v z e w w e h 0 8 1 1 y y u n y y t i y p ~ +.i.S.'.'._.].#XXX X:XaXsXaXfX6XuXaXfXaXaX",
"dXsXsXsXsXaXdXaXsXsXaX2XE.c.q.} ] y , = + 1 z f v e h h h 9 1 2 i y u m n i j m p n Q -.3.a.D._.].].|. X^.=XaXsXaXaXaXaXsXsXsXsX",
"dXsXdXaXaXsXsXsXsXsXzX=XE.j.8.] ) 9 i *   = a z f z v c z 0 1 9 y h h c m x m K K Q +.! -.b.K.XX_.].|.^.^.5XsXxXaXaXfXaXaXaXsXsX",
"fXaXsXsXaXsXaXaXsXsXxX%XI.d.%.] ] 3 n 8 O * : : e z c B c x y 9 y x x x x n B V _ +.u.b.3.3.A.].].#X]. XR.2X5X5X5X5XaXaX2X2X5XsX",
"fXaXsXsXaXaXaXsXaXaXxX&Xx.y.$.] T 3 M 5   & & 1 9 i j c m h u y y i D x x a z B X.=.;.u.u.,.3.F.].#X#X X^.3X2X2X2XuXaXaX2X2X5XsX",
"fXaXaXsXaXaXdXaXaXiX5XE.c.q.$.E M 3 Y     # * 9 y p g g n j k j h p x B z 8 8 a H H _ L L ` ( p.G.#X#X X}.sXsXaXaXfXaXaXaXaXsXvX",
"fXaXfXsXsXaXsXsXsXaX2Xv.g.q.%.E T y Q     + 0 t t 3 u g g g k n x m i b b q 8 $ o 7 L L : z k i.i.G._.|.:XaXsXaXfXaXaXaXaXsXsXsX",
"sXaX7XaX7XaXzX6XaXaX6XE.x.y.%.W V u (     O i < 3 < 3 2 3 y u p j x B h c b z F 7 7 % _ 5 5 G A.o.a.h.R.}.xXxXxXaXaX8XaXaXaX8XaX",
"sXaXaXzXaXaXzXaXaXxX6XE.x.y.%.] Z u Q 6   + 9 : < 2 < , , 1 2 0 y m K K P J / >.M.>.r F 8 - ` G.^ { e.T.}.3XaX6XxXaXaXaXaXaXaXaX",
"fXaXaXaXaXzXaXaXaX6X2XE.!.g.8.] Z R y V + 4 < * , < 2 < , < 2 2 i B ^ Q ;.O._ =.u.N.4._ a t -.K.C U #.f.Q.2X7XaX6X6XxXxX6XaXaX7X",
"sXaXaX7XaXaXxX7XxXxX&XW.Q.g.8.} Z R x D ; O * & > , 2 , , < < 2 y x (  . .-.2.5.u.u.5.! a a -.].U #.9.k.6XaXaXaXxXaXxX6XzXaXaXxX",
"sXaXaXaXaX8XaXaX6XaX6X>Xv.k.e.} S S Z ( e # : = > , 2 , < > < 2 t n Q ) +.i.N.J.N.N.5.' n V ,.XX).(.I.1XaX7XaXaXaXaXaX7XzXaX7XaX",
"sXsXaXaXaXaXaXaXxXaX6XxX6X5Xt.8.] l l ( K & , > > , < , > > < < 9 p V Q ( i.J.XX'.'.5.-.M ~ *.|.m.T.:XaXaX5X6X6X8XaXaXzXaXaXzXaX",
"sXaXaXaXaXaXxX6X6XaXxXaX8X8Xr.8.[ Z l M ` : : < 2 2 2 2 < < > 1 2 y n n Q <.H.XXXX'.5.o.Q ^ O.`.`.}.aX6X5X4X2X5XaXaXaXaXzXaXaX7X",
"sXaX7XaX8XaXaXxXxXxX6XxX8X8Xv.q.] Z j g B p : t 2 2 2 2 3 2 < 2 t i p n V ' p.XXJ.b.+.N D / @.'.@X:XaX6X2X,X;X<XaXaXaXaX7XaXaXaX",
"2X2X<X<X2X5XaXaXxX6X5X5X6XaX~.r.} S g g 0 > 1 3 3 2 g 3 3 3 3 y i j n j V ' 6.l.l.-.a a a A @.U.@X:X7XsXaX6X5X2X5X5X6XzXsXsX7XaX",
"<X2X2X5X4X5XaXsXaX6X6X6XaXaXx.r.[ S g y y > 1 2 2 2 g g g y 2 y t p p m V ' <.<.-.8 a G K D %.U.yX2X6XsXaXaX6X6X5X7XaX7XsXsXaX6X",
"<X2X2X5X5XaXaXxXaX6X6X7XaXaXz.8.] S h 3 3 2 > > > 2 3 3 g 3 2 0 9 t p a Q ! &.-.G - t a ` ( $.L.@X6XaXxXxXaX7X6X6XaXaXaXsXaXaXaX",
"5X5X5X5X7XaXsXsXaXaXaXaXaX2Xg.} W l 2 y 2 1 > > 2 2 2 2 2 2 2 2 , 2 u n Q ' &.-.G # + - d | } F.|.aXaXaXaXaXzXaXzXxXaXaX7XaXaXaX",
"aX6X7XaXaXaXzXaXaXaX8XaXxXE.y.} W l 0 2 2 2 = = 1 2 2 2 1 9 9 < 9 9 p G Q ! ` +.` N 4 % r L $.d.}.aXaXaXaXzXaXaXxXsXsXaXzXaXsXsX",
"fXaXaXsXaXaXaX7XaXaXaXsXxX8X8.[ S l 2 > 2 2 = = < < < 1 < 1 < 8 , a ! B Q ! ! _ ` ` G N I u.].^.,XzXaX6X6XaXaX7XaXsXsXaXaXaX7XsX",
"sXsXaXsXaXaXaXaX6XzXaXxXxX6X;X[ S l 2 = = = = & = , 1 , , , < , , G ' N N N N Q ` -.-.i.i._.}.R.2XaXaX7XaXaXaX7X7XaXaXzX7XaXaXaX",
"fXaXzX7XaXaXaXaXxXaXaXxX6X6X8X!.l l > & = = = & & : 1 > > : < 8 > ! +.N - + 4 q a ` ` 6.i._.R.^.sXaXsXaXsXaXsXaXaXaXsXaXaXaXzXaX",
"fXaXaXsXsXsXsXsXsXaXxXaXaXaXsXaXv.z 1 @ * & & & & = > = = = 1 8 2 ! 1.K 0 a a N e a G ,.r.U.^.;XaXsXvXsXaXaXaXfXsXaXaXaXdXdXfXaX",
"aXfXsXsXsXaXsXaXaXsXaXaXsXsXaXaXxX&XC @ @ X & @ X & 1 = & & & = 1 G +.n N x n G +.5.3.2.3.L.^.7XxXsXaXaXaXsXdXdXsXsXaXaXaXaXsXsX",
"sXaXaXaXaX7X6XaXaXaXaXaXaXaXsXaXaXaX<X..@ X + + & X ; = & @ & @ : v B p n Q Q a K ` i.S.f.c.&X<XsX6X2X2XaXaXsXaXaXaXdXsXaXaXaXsX",
"fX6XaXaXaXaXzXaXaXaXaXaXaXaXzXaXaXxX6X6X7.o . . X @ @ ; - @ @ @ - * 8 p n V Q K K L o.w.L.R.>X<XsX6X,X2X6XsXsX6XaXaXsXsXaXaXaXsX",
"fX6X6X6XxXxX8X8X8XaX8XzX6X6XzX7XzXaX7XaX3X7.. . + @ + & 6 : - O @ # : i ( @.+.( ` +.2.f.T.-X3X2XvXaX6X6XxXxXzXaXaXaXsXaXaX5XsXsX",
"fX7X7XaX8XxX8X6X7X7XaX6X8XxXzX6X7XzXzX7X8X8X9.. . & + + ; 5 5 # + + - e ( 3.3.@.1.i.f.F.[.1X2X,XaX6X6X7XaXaX6X6XaXaX7X5XaXaXaXaX",
"fX7X6X8XzX6X5X4XaX6X7XaX6XxX8XaX6X8X7XzX8X8X3Xe.O O - @ - : : # $ # 4 q Q 6.l.p.b.F._.(.uX1XaXaX2X2X2X5X5X5X5X5XaX5X5X5X6XaXaXaX",
"sXaX6XaX8X7X2X;X8XzX7XzX8X7XaX7X6X7XzXzX8X8X5X5Xt.o # - - 5 6 5 4 6 6 w B ,.p.p.A.D.`.-XuX1XfXsX<X,X;X<X2X5X5X5XxX5X2X2X6XaXsX6X",
"sXxX7XaXzX6X7XaXaX7X7X7XaX7XaX7X6X6XzX7XxX6X6XxX3Xj.$ $ ; 5 6 w w w f v C $.2.e.f.z.R.1XaXaX5X<X;X,X2X3X5X5XaXsXaXsXaXaXsXaXaXaX",
"sX6XxX7XaXaXaX6XaXaXzXaXaX8XaXxXaXaXaX7XaXxXxX6X6XaX%Xf # 5 6 6 f v C U U #.:.e.f.L.^.5XuXaX4X4X5X2XaX5X6X2XaXsXxX7XaXsXaXaXxXaX",
"fXaXsXaXaXaXsXaXzXaXaXaXaXaXaXaXsXaXaXaXxXaXaXaXxXaXsX>Xf $ 7 w f U U ..#.9.t.d.E.:XaXaXaXsX7X7X5XaXaXaXaXaXaXsXsXsXsXsXdXaXaXaX",
"dXsXsXaXaXzXsXsXaXaXaXsXaXxXaXaXsXsXsXsXaXaXaXxXaXaXsXsX>X9.C v P U #.9.y.v.&XiXsXsXsXxXsX7XsXsXsXsXdXaXaXaXdXsXsXsXsXsXzXaXsXaX",
"fXsXsXsXsXsXsXdXsXsXsXsXsXsXsXaXfXaXfXsXsXsXdXsXsXaXaXdXsXsXaX/.j.e.j.%X3X8XaXzX6X8X8X6X6X6X6XsXsXfXfXfXfXsXsXsXaXaXdXaXdXdXaXaX",
"fXaXsXsXaXfXsXaXaXsXdXsXsXsXsXdXdXaXaXaXsXsXsXsXsXsXsXsXsXsXdXsXcXzXaXsXaX6X7X7X6X6X7XaX6X6XaXaXsXaXsXsXsXfXdXsXfXfXfXaXsXsXfXdX",
"dXaXdXaXaXdXaXaXdXsXdXsXdXsXsXdXaXaXaXdXdXaXdXsXsXsXsXdXdXsXdXzXzXaXsXaXaXxXaX6XaXxXxXzXzXzXzXaXsXfXdXdXfXfXfXfXaXdXfXfXdXfXfXaX",
"kXkXkXkXkXkXkXkXkXjXkXkXdXjXdXkXkXkXkXkXkXkXkXkXkXkXkXjXdXkXkXcXjXjXpXkXcXcXcXcXzXpXlXlXbXbXjXkXkXkXkXkXkXkXkXkXkXkXkXkXkXkXkXkX"
};
