/* XPM */
static char *result[] = {
/* columns rows colors chars-per-pixel */
"64 64 235 2 ",
"   c #2A160B",
".  c #351A0E",
"X  c #2F1C12",
"o  c #341C12",
"O  c #3B1E12",
"+  c #3D2214",
"@  c #3D2419",
"#  c #3D2B1D",
"$  c #2D2521",
"%  c #432414",
"&  c #492715",
"*  c #4D2A16",
"=  c #42261B",
"-  c #452A1C",
";  c #4B2B1B",
":  c #532C17",
">  c #542E1A",
",  c #592F19",
"<  c #56311C",
"1  c #5B331D",
"2  c #61361E",
"3  c #442B20",
"4  c #4A2E21",
"5  c #4D3325",
"6  c #423228",
"7  c #543323",
"8  c #5C3622",
"9  c #5D3924",
"0  c #583728",
"q  c #553B2A",
"w  c #553A2F",
"e  c #5B3D2B",
"r  c #623722",
"t  c #643A25",
"y  c #683B27",
"u  c #653D2B",
"i  c #693E2B",
"p  c #633D31",
"a  c #4F402D",
"s  c #5F422D",
"d  c #5B4432",
"f  c #6B4027",
"g  c #63412D",
"h  c #6C422C",
"j  c #72432F",
"k  c #734A2E",
"l  c #644333",
"z  c #6C4432",
"x  c #634B35",
"c  c #6A4934",
"v  c #69473A",
"b  c #6C4B3A",
"n  c #724633",
"m  c #734A35",
"M  c #7B4C35",
"N  c #71463B",
"B  c #744C3A",
"V  c #7C4D3C",
"C  c #69543D",
"Z  c #765335",
"A  c #7C5335",
"S  c #74513C",
"D  c #7B523C",
"F  c #7C593C",
"G  c #594541",
"H  c #774B43",
"J  c #6D5242",
"K  c #755343",
"L  c #7C5343",
"P  c #77574D",
"I  c #785848",
"U  c #7C5C4B",
"Y  c #78644A",
"T  c #78705A",
"R  c #814F3C",
"E  c #85543A",
"W  c #83533D",
"Q  c #835B3E",
"!  c #84613F",
"~  c #835544",
"^  c #875647",
"/  c #8A5643",
"(  c #845B45",
")  c #835B4B",
"_  c #8B5B4C",
"`  c #915D4D",
"'  c #895D53",
"]  c #955F51",
"[  c #8B6443",
"{  c #896648",
"}  c #92684B",
"|  c #96714F",
" . c #846352",
".. c #8C6252",
"X. c #876B55",
"o. c #8C6B5B",
"O. c #936352",
"+. c #966759",
"@. c #9D6C5A",
"#. c #86765B",
"$. c #9A7353",
"%. c #997759",
"&. c #A06B5C",
"*. c #A0785A",
"=. c #9D6B62",
"-. c #897462",
";. c #9A7666",
":. c #9A7C65",
">. c #9B7C75",
",. c #A16D61",
"<. c #A47264",
"1. c #A67869",
"2. c #AC796D",
"3. c #B07A6D",
"4. c #A97C71",
"5. c #B27D70",
"6. c #A6835D",
"7. c #9C8564",
"8. c #9E8075",
"9. c #A78867",
"0. c #B18B6C",
"q. c #AA926C",
"w. c #B3926D",
"e. c #AA8777",
"r. c #B48374",
"t. c #BA877B",
"y. c #AC9378",
"u. c #B39272",
"i. c #BC9B75",
"p. c #B79778",
"a. c #BC9C7C",
"s. c #BDA77C",
"d. c #C1867D",
"f. c #C28B7E",
"g. c #C2967D",
"h. c #C3A57D",
"j. c #C5AA7D",
"k. c #BC8C83",
"l. c #AE9386",
"z. c #BC9C83",
"x. c #B0958C",
"c. c #B8968A",
"v. c #BEA383",
"b. c #BCB68E",
"n. c #BDA495",
"m. c #BDB898",
"M. c #C28C83",
"N. c #C4948A",
"B. c #C99888",
"V. c #D29C8D",
"C. c #C69A92",
"Z. c #CC9D93",
"A. c #D19F93",
"S. c #C8A385",
"D. c #C4AB84",
"F. c #CCAB84",
"G. c #C5AB8B",
"H. c #CAAC8C",
"J. c #D4A98D",
"K. c #CCB385",
"L. c #C5B48B",
"P. c #CDB58A",
"I. c #CCB98C",
"U. c #D2BB8B",
"Y. c #D7B88D",
"T. c #C5A798",
"R. c #C4AC9C",
"E. c #D4A494",
"W. c #D9AD95",
"Q. c #D4A59B",
"!. c #D8AA98",
"~. c #CCB393",
"^. c #C4B993",
"/. c #C8BA96",
"(. c #CDBA9B",
"). c #DBB492",
"_. c #D6B895",
"`. c #DEB49D",
"'. c #E2BC9D",
"]. c #C6ACA1",
"[. c #D9ADA5",
"{. c #CDB6A7",
"}. c #D9B7A5",
"|. c #D3BBA2",
" X c #DBBDB4",
".X c #E3BBA4",
"XX c #E3B6A8",
"oX c #E6B8B1",
"OX c #D9C28E",
"+X c #C9C19B",
"@X c #DDC492",
"#X c #DBC79A",
"$X c #E7CC8F",
"%X c #E5C995",
"&X c #E4CB95",
"*X c #E6CC99",
"=X c #ECD295",
"-X c #E6D19E",
";X c #EDD49A",
":X c #EFDA9C",
">X c #F3D594",
",X c #F0D79A",
"<X c #F4DB9D",
"1X c #FADD9D",
"2X c #F8E09E",
"3X c #CAC7A9",
"4X c #D8C2AD",
"5X c #D9CCA9",
"6X c #DCD0A8",
"7X c #DBC3B2",
"8X c #DBC9B7",
"9X c #D5D1B4",
"0X c #D9D5B7",
"qX c #E8C4A9",
"wX c #E5D2A3",
"eX c #EAD5A4",
"rX c #EBDAA6",
"tX c #E4D4A9",
"yX c #EEDDAC",
"uX c #F7DEA3",
"iX c #F8DEA4",
"pX c #F5DEAB",
"aX c #F8DCAA",
"sX c #E8C6B9",
"dX c #E3D9B6",
"fX c #EDDDB3",
"gX c #F2DEB1",
"hX c #EFE1AF",
"jX c #F5E1A3",
"kX c #F9E0A4",
"lX c #F3E1AC",
"zX c #FAE2AA",
"xX c #F2E1B1",
"cX c #E6CDC3",
"vX c #F4CFC3",
/* pixels */
"aXiXiXiXuXpXiXuXuXuXiXuXuXiXiXuX1XuXuXuXuXjXjXuXuX1XkXuXuX1XuXuXuX1XuXuXuXjXuXuXiXiXkXuXuX1XkXjXlXjXjXjXjXkX1X1X1X2X2X2X2X2XjXjX",
"aXiXiXiXuXuXiXiXuXiXiXjXpXiXuXuXuXuX1XuX1XuX1XuXuXuXuXuXuXuXuXjXuXuXjXuX1XuX1XuXuXuXuXuXuXuX<X,XuXrXjXjXjXuX1X<X1X<X<X<X<X<XjX:X",
"pXiXiXiXuXiXiXiXuXiXuXuXiXiXiXuXkXuXuXuXuXuXkXuXuXuX1XjXuXuXuXuXjXuXuXuX1XuXuXuXkXiXuXiXjXuX,X=X:X:X:XjXuX<X;X=XkXiXjXjXjXjX2XjX",
"pXuXuXuXuXuXiXpXpXiXiXuXiXjXpXuXuXkXuXuXuXuXuXuXuXuXuX<X=X&X&X;X<XuXuX1XuXuXuXjX1XuXuXuXuX<X,X=X:X:X<X<XiX<X;X*XuXuXuXuX2XjX2X:X",
"aXaXuXuXiXiXuXuXiXuXiXuXiXuXiXuXuXuXuXuX1XjXuXuX&X@XK.L.D.D.b.v.v.I.;XuXjXuXuXuX,X,X<X<X,X=X=X=X$X>X>X<XaXaXaXpXxXlXlXpXjXuXuXjX",
"aXuXuXuXiXiXuXiXuXuXuXiXuXuXiXpX1XuXuXuXuX-XOX_./.(.(.4X{./.G.G.L.D.v.D.U.;XjX1X;X<X<X<X,X=X,X<X>X>X>X<XuXpXgXgXgXfXfXpXhXiXzXkX",
"aXuXuXuXiXiXiXuXpXiXiXiXuXuXiXuX,X<XuX=XI./.|.4X}.{.R.R.T.n.v.y.z.a.a.a.D.D.U.;XuXuXkXiX1X<XuXjX1X1X1XaXgXfXdXdX6X6X6X6XwXeXeXuX",
"aXaXuXaXiXiXuXuXuXiXiXpXjXuXiXuX,X,X@X(.|.4X7X{.|.R.n.n.x.l.y.e.8.7.7.9.q.a.H.P.@X;XzXkXjXiXuX1X1X1XiXaXgXfXdXdX9X9X5X5XtXyXpXaX",
"pXuXuXuXjXuXiXiXuXuXiXuXuXuXuXuX:XI.(.4X7X7X{.].].n.n.l.l.8.>.:.:.:.:.:.7.e.u.G.~.I.;XuXuXuXuX1XuX<XzXlXs.L.9X0X9X9Xm.^.^.I.wXwX",
"pXuXiXuXiXiXuXpXuXuXiXiXiXpXiX;Xv.(.dX7X{.R.n.n.x.l.l.>.-.o.X.X. .X.X.:.:.e.p.s.~._.U.&X1XuXuXkXuXuXzXxXOX+X9X3X9X9Xm./.^.I.wXwX",
"aXpXuXiXiXuXuXuXiXuXuXuXkXaX&X~.{.7X8X X{.].R.c.x.>.4.o.' U  .U I U Y o.e.9.y.G.}.qX_.P.;XjXuXuXuXuXjXhX6X+X+Xm.m.3Xb.b.^.L.wXwX",
"aXiXiXiXpXuXiXuXpXuXuX:XuXU.L.R.{.cXcX X{.].x.l.;.o. .~ L L L ) I I I U %.e.y.y.D.~.~.D.D.;XuXuXiXkX:XlXhX6X+X^.b.m.b.^.I.Y.wXeX",
"aXiXiXiXiXiXuXuXpXiXiXuXOX~.(. X8XcXcX XC.l.4.1.o.) I V D L L L L U U I I o.y.c.z.S.G.S.h.K.uX<X1XkX<XzXlXhX6X6XtXtXtXeXwXwXpXzX",
"aXiXiXiXpXuXiXuXuXuXiX@XL.4X X8X8XcX].].x.;.../ _ ^ V m n n B B K U  .U U Y X.e.p.z.z.H.D.h.U.1X<X2X2XjX:XjX-XrXwXwXeX-X-X;X;XuX",
"pXpXuXuXiXuXiXiX;X<XiXI.(.7X}.7X XC.k.k.k.,.&.] / W V M j u z B K I K K K S Y 9.c.S.z.u.g.h.D.=X2X2X:X2X=X=X*X*XiXuXaXuXaXiXiXzX",
"aXuXuXiXuXiXiXiX;X,XjX@X(.4X[.[.Z.N.k.M.5.,.&.O./ E W M h y g z I K J v b B B  .:.y.z.z.u.a.j.U.>X2X>X2X=X=X=X=XpXiXaX1X1X1X1XuX",
"aXiXuXuXuXuXiXuXiXiXuXI.~.[.!.A.V.B.M.M.3.3.&.] / E R j h y t g v P J l s s x F  .{ :.a.a.0.g.h.&XjX2XuXuXuXuXuXuXpXuXiXaXkXiXuX",
"pXiXuXiXuXuXuXiXiXiXuX&XJ.!.V.V.B.M.d.M.d.3.&./ D W M h r r 8 7 e b x l g g g c m D { +.p.i.w.h.K.1XiXuXiXuXiXuXiXuXuXuXiXiXiXiX",
"aXiXiXiXuXuXuXaXuXuXuX%X).E.V.V.V.V.N.M.d.d.&.R M M j t 8 r 8 8 0 v s q s 9 s f c Z F { $.0.w.i.h.-XiXiXuXuXiXpXjXuXuX<XeXuXiXiX",
"aXiXpXiXuXuXuXuXaXuXuXY.'.!.XX`.A.[.N.d.5.&./ i j i t 1 8 8 8 1 8 d s q q s s x Z m D F { $.9.w.h.K.uXiXiXuXiXuXiXiXeX<X<XuXiXiX",
"aXuXiXiXuXuXuXaXiXiX,X).'.oXsXoXoX[.A.N.3.` / j t t y t 9 1 < < 7 7 q e 7 7 s c B D F F Q [ %.w.i.j.-XiXiXiXiXuXuXuXuXuXuXiXiXiX",
"pXuXuXuXrXuXiXiXiXiX*X'..XsXvXvXcX[.Z.5.<.` E R h m h 9 < < > > < 7 0 e q 7 q g c Z F Q Q [ $.9.i.F.@XuXiXiXuXuXuXuXuXuXiXiXiXiX",
"aXuX;X,XuXaXiXuXuXiX=X'.qXvXvXsXoX[.V.5.&.` R i t f f 9 < 1 > 7 1 7 7 e 0 e s s b F ( W Q Q } $.w.h.K.uXiXiXiXuXuXuXuXuXiXiXiXiX",
"aX;X;X;X,XuXuXuXuX1X'.qXqXsXoXoXoX[.N.r.&.E R i h f 1 1 1 < 8 t 9 8 u 9 q q e g c S D m Q | } | 9.h.K.;XiXiXuXiXaXuXuXuXiXiXpXiX",
"aXiXuXiXuXuXuXuXpXiX@X.XXXXXXX[.Q.C.t.4.2.] n r y t 9 r t t 9 u 1 < q s e 9 e s g l z h M } | } 1.i.j.U.iXuXuXuXuXuXiXiXiXiXiXiX",
"aXaXuXiXiXuXiXuXiXiX&X`.`.`.!.E.Q.Q.C.5.+.^ i r y 9 t t z u t t 1 < 1 8 g e q q e l c e > > E } *.i.j.K.uXuXuXiXuXuXeXuXuXiXiXiX",
"pXiXiXiXiXiXiXuXjXuX&X).XX`.!.!.Q.N.k.2.=.~ n i n h u n m y u t 1 < q g g d e l d l 7 O * > r [ | 6.g.j.@X,XuXiXuXiXuXuXuXuXiXiX",
"pXuXiXuXpXuXuXuXiXjXuX).'.`.`.E.[.A.M.,.` ..~ H ~ n z N c u u t 1 1 9 l c v l l l e :   & y 8 / ! %.i.D.U.uXiXkXeXiXiXiXuXuXuXiX",
"pXaXiXiXiXiXiXuXiXiXiX_.'.`.XX!.A.N.4.4.k.4.o.' H B z z n z z t 8 e z c b c g e ; ; ; o > M 2 ! } *.w.j.U.>X;X,X;X,XuXeX-X;X,XiX",
"aXaXiXiXuXiXiXiXuXuXuX_.'.XXXX!.B.2.<.5.l.;.o.o.b h i z z B u t t f h n c h t 8 > % =   4 R 2 E ! $.9.j.U.;X;X;X;XuXiXuX;X;X<XiX",
"aXuXuXuXiXiXuXpXiXuX;XY.`..XXXA.5.` ' P H P P J l 7 7 l S z u h h j h k h f i y 8 & O     ~ 2 M Q $.w.j.U.jXaXiXuXuXiXuXuXuXiXaX",
"aXuXuXuXuXuXuXuXiXuX;XY.W.E.B.r.5.M l 4 P P 6 X @ 7 q b b z n c h j h h f t 2 r r 8 O     ~ y A ! 6.6.h.P.uXiXiXiXuXuXuXuXiXiXiX",
"iXjXuXuXuXuXjX1XuXuXuXY.J.a.f.O.M.H 4 7 ' $ 6 6 G l b v s m z i h y t t 1 2 , 2 , t .     ~ y A Q *.w.h.K.uXuXjXuXuXjX1XuXuXjX1X",
"iX1XuXuX1XuXuXuXuXuX;X#XG.9.} F V.] = 7 G 6 >.l.>.I L U I L n y 8 1 , > , 1 1 : * 9 @   5 L y A ! *.w.h.K.jXuX<XuXjXuXuXuXuXuXuX",
"aXuX1XjXjXuXuXuXuXuX;XP.p.#.Y C C.,.p r ' >.C.l.=.U +.;.~ ~ N y 1 1 > > , 1 , , & > - @ L r ~ A { *.s.K.j.;XuXuX1XuXuXuXuXuXuXuX",
"iXuXuXuXuXuXuXjX1XuXjX:Xs.7.T #.[.,.p p ^ 4.4.4.4.1.<...O.( N y 1 1 > > > , > : & & o - V z W A | 6.i.P.K.@XuXuXuXuXkX1XuX1XjXuX",
"iXuXuXuXuXuXuXuXjXuXuX1X;XS.T.H.[.<.V n ] 4.N.c.C.N.r.+.` ~ i r , , , : , 1 > * * * = u ! Z F F $.q.s.s.&X<XuXjXuXuXuX2XuXuXuXuX",
"aXuXuXuXjX1XuX1XuXuXuXjXuX@XH.N.`.&./ M =.4.Q.Q.].Z.5.' ~ ~ i r , , : , > , > > , 4 O H } k Z ! 6.9.:X<XuX<X<X1X2XuXuXuXjX1XuXuX",
"iXuX1XuXuXuX1XuXuXuXuXuXuXuXY.`.!.+.~ ~ +.4.Q.[.XXZ.1.~ R i r r > : , , 1 1 1 , , * > { M k Z { 6.q.kX2X;X=X;X;XuXuXuXuXjXuXjX1X",
"iXuXuXuXuXuXjXuXuXjX1XuXuXuX%X.XE.@.{ L p +.M.Z.Q.t.] H i p u r 1 , 1 1 2 8 1 8 8 * l B f f Z ! 6.j.2X<X=X=X=X=XuXuXuXuX1XuXuXuX",
";X=X=X=X,X,X<XaXuX<X:X,X1XiX*X.XS.@.S p p p =.5.M.3.] i i H p i r 8 r t t 2 2 2 t < > 2 t f Z | 0.j.uXuXuXuX,X;X,X<XuXuXuXuXuX1X",
";X=X=X=X,X<XuXuXuXuX<X;XuXiX;XqXS.%.L L ~ u , =.3.<.] ~ i i y r r 2 2 y f f 1 1 1 < : f 9 f Z | 6.h.uXuXuXuX1X,X,X<X1XuXuXuXuXuX",
";X;X;X,X<X1XuXiXuX1X<X1XuXiXuXqXB.$._ ` N 0 % H ,.&.` R i i r 8 1 1 2 y 2 2 1 > > : 1 2 t f Z } 6.h.1XjXuXuX1X<X1XuXuX1XuXuXuX<X",
",X,X,X<X<XuXiXiXuXuX1XuXuXjXuX}.B.| U d 3 o O H ,.+.` ^ H y r , 1 1 t 2 1 1 , 1 : : 1 1 2 2 Z ! | g.&XuXkXuXuXjXuXuXuXkXuXuXjXuX",
"uX1XuX1XuXuXuX1XuXjXuXuXkXiXiX).y.%.J w # 3 H ' +.` ' H H i 8 1 1 1 8 1 < 1 1 , * > < 1 1 2 k ! | w.j.2XuXuX1XuXuXkXuXkXuX2XuXuX",
"uXuXuXuXuXuX1XuXuXuXuXuXuXuXuX%XJ.W.y.I G H ' +.' ^ ~ H V ^ u 7 < 1 < < < 1 > , * * < : < 1 Z F ! w.>X2XuX1XuXuXkXuXuXuXuXuXuXuX",
"pXiXuXuXuXuXuXuX1XuXuXuXuXuXuX;X_.W.E.r.k.=.=.' ~ H z N N ..V > < > < > > < : * % * : * * < k Z { &X2X2XuXuXuXuXuX1XuXuX1XuXuXkX",
"aXuXuXuXkXuXuXiXuXuXuXuXuX1XuXuXY.J.E.r.2.] ' p 0 = @ = N +.^ > 7 < ; : : < * % % * & * % < f Z K.kXkX2XiXuXuXuXuXuXuXuXkXuXuXuX",
"uXuXiXiXuXuXuXuXpXiXuXjXiXiXiXiX%XJ.J.r.&.V p p v l p r L 1.^ 7 7 > * & : > & % % % % - % < c j.2XiXzXkXuXuXuXuXpXiXuXuXuXuXpXiX",
"aXuXaXiXuXuXuXuXuXiXuXuXiXiXuXiXaXY.S.9.1.2.3.+.L n n N z +.L > ; % & % * > % O + + + + + x @X2XkXiXuXuXaXuXaXiXiXiXuXpXuXpXiXiX",
"uXuXuXuXuX1X1XuXuXjXuXuXuXuXuXuXuX%XF.g.S.t...L i ~ ~ n h n c * + + + % ; ; O O + O + X Y OX=X=XkXeX;X=XuXuXuXuXuXiXiXuXuXuXuXuX",
"aX1XuXuXuXuXuXjXuXuXuXuX1XuXuXuXuXuXY.F.u.@.( F L ^ R n u < - # O O + & ; O O O . . X Y -X=X=X=XkX,X;X;X,XiXuXuXuXaXiXiXuXuXuXiX",
"aX<X2XuXjXjXjX1X2XuX2XuXjX<XjX1XuX1X&XY.j.0.@.O._ +.@._ u ; @ + o = 4 5 % O + o . X T L.tXeX;X=XkXiXuX<XuXiXjXuXuXuXiXuXuXuXuXuX",
"aXuX<X<X2XkX2X<X<X1XuX1X1XuX1XjXuX1XkXY.J.g.t.3.&.3.3._ u - + + @ 4 ; - O O @ .   T ^.+XwX-X-X=XuX1X<XuXuXuXuX<XiXuX<X<XeXuXuXuX",
"aX1X<XuXuX1X:X=XjX1X<XjX1XuXuX<X<XuXiX1X).).J.f.f.f.r.~ q - = # @ ; 4 & @ @ + X #.+X6XwXeXwXuXuX;X;X,X,X,X,X,X,XiX1X,X,X<XuXuX1X",
"iXuX1X1X1X<X=X$X1XuXuX2XuX1XjX2X<X1X1X1X$X).V.B.f.f.1.A q 5 5 3 - 5 4 = @ @ X #.L.^.6XeXwX*XpXaX=X$X$X=X>X;X,X,XuX,X=X=X<XuXuXuX",
"iXuXuX1X1XjXuX1XjX<X1X1XjXuX1XjX1X<XuXuX;XY.j.p.0.9.%.Z x d a q q 5 3 - = @ y.6XwXwXwXeXeXaX,X=X$X=X,X;X;X:XuXiXuXuXiXuXuXuXuXuX",
"pX1XjXuXuX<XuXuXuXjXuXuXuX1XjX<XuXuXjX1X1X@XF.i.9.6.#.Y Y C x d 5 5 3 # d I.wXrXeXeX;X,XuX1X>X>X;X;XuX;X<X;XuXiXuXuXiXiXiXuXjXuX",
"uXuXuXuXiXuXuXuXuXuXjXuXuXuXuXuXiXuXuXuXiXuX&XK.u.q.7.7.X.Y I x w 5 # d &XeXuXuXuXuXuXuXaXiX1X1XuXuXuXuXuXuXuXiXuXiXiXiXuXiXuXuX",
"aXiXuXiXiXjXiXiXuXuXiXiXiXiXiXiXpXuXiXuXiXiXuXuX:XOXs.q.7.7.Y J d J 7.*XiXuXiXiXuXuXiXkXuX1X1XiXiXiXaXuXuXuXiXiXiXiXiXiXpXiXiXiX",
"aXiXuXuXiXaXuXiXiXiXiXiXiXuXpXjXuXpXiXiXiXiXiXiXjXiXpX;XU.s.q.s.OXuXiXiXuXuXuXuX1X1XuXjX<X<X<XiXiXaXiXpXiXiXpXiXaXuXaXuXiXiXiXpX",
"aXiXiXpXiXuXuXpXiXpXiXiXiXuXiXiXiXuXiXiXpXiXiXuXjXkXpXiXpXiXuXiXuXiXiXuXuX1X1X1X<X1X1X<X<X<XuXuXuXaXuXuXaXiXiXaXuXaXuXiXiXpXuXuX",
"aXiXuXaXuXaXaXuXpXuXuXaXuXiXpXiXuXaXuXaXiXuXpXaXiXpXiXiXiXiXiXjXpXuXiXiXuXjXuX<X2XjX2XzXzXjXjXuXiXpXaXaXaXaXpXaXaXpXaXpXaXaXaXaX",
"gXfXpXfXgXpXfXgXgXgXgXgXfXgXgXgXgXgXgXgXgXgXgXgXgXgXgXgXgXgXgXhXfXfXyXgXhXlXlXlXhXrXhXhXlXhXfXgXgXgXgXfXgXgXgXgXgXfXgXgXgXgXgXfX"
};
