/* XPM */
static char *result[] = {
/* columns rows colors chars-per-pixel */
"64 64 247 2 ",
"   c #301B0F",
".  c #3C2413",
"X  c #373337",
"o  c #462816",
"O  c #532B15",
"+  c #592B15",
"@  c #4F341C",
"#  c #57341B",
"$  c #5D3219",
"%  c #663619",
"&  c #64351A",
"*  c #6B3B1C",
"=  c #75361B",
"-  c #723E1E",
";  c #7A3E1E",
":  c #453426",
">  c #4C322F",
",  c #553A24",
"<  c #5B3D23",
"1  c #653A25",
"2  c #6D3D21",
"3  c #733D22",
"4  c #7A3C28",
"5  c #773E34",
"6  c #73411E",
"7  c #5F4021",
"8  c #5E432C",
"9  c #524435",
"0  c #6A472A",
"q  c #754324",
"w  c #7B4523",
"e  c #7C4927",
"r  c #75452A",
"t  c #7B462A",
"y  c #744A2C",
"u  c #7B4B2C",
"i  c #76522F",
"p  c #654A33",
"a  c #674937",
"s  c #6B4C34",
"d  c #774836",
"f  c #7D4D33",
"g  c #6D513A",
"h  c #7C5334",
"j  c #775639",
"k  c #74543C",
"l  c #7A553D",
"z  c #7F603E",
"x  c #443F41",
"c  c #504C50",
"v  c #765744",
"b  c #7B5B44",
"n  c #74524A",
"m  c #7D5D4A",
"M  c #7C634A",
"N  c #6F6357",
"B  c #7D6557",
"V  c #7B6B6A",
"C  c #824825",
"Z  c #83452C",
"A  c #824C2C",
"S  c #8B4B2C",
"D  c #914E28",
"F  c #88512D",
"G  c #94532D",
"H  c #854E33",
"J  c #874935",
"K  c #934D32",
"L  c #855233",
"P  c #8A5434",
"I  c #83563C",
"U  c #8C563A",
"Y  c #855A3B",
"T  c #8C5A3C",
"R  c #975837",
"E  c #925C3C",
"W  c #A05C3E",
"Q  c #89623E",
"!  c #93613D",
"~  c #9C633D",
"^  c #A2633D",
"/  c #8A4B44",
"(  c #885A46",
")  c #955642",
"_  c #935D42",
"`  c #96594A",
"'  c #875952",
"]  c #995951",
"[  c #846243",
"{  c #8A6343",
"}  c #84624C",
"|  c #8B644B",
" . c #8E6949",
".. c #946343",
"X. c #9B6444",
"o. c #9A6A46",
"O. c #94644A",
"+. c #9B644B",
"@. c #946B4B",
"#. c #9C6B4B",
"$. c #8F744E",
"%. c #99714E",
"&. c #876854",
"*. c #8A6B5B",
"=. c #926C53",
"-. c #9C6C54",
";. c #946858",
":. c #9B6D5A",
">. c #897556",
",. c #997557",
"<. c #94745C",
"1. c #A56543",
"2. c #A46A44",
"3. c #AC6D46",
"4. c #A2654C",
"5. c #A36C4C",
"6. c #AA6D4B",
"7. c #B16A46",
"8. c #B26D4B",
"9. c #A3714F",
"0. c #AD714C",
"q. c #B3734E",
"w. c #BA764F",
"e. c #A56655",
"r. c #A46C52",
"t. c #A96D52",
"y. c #A36D59",
"u. c #AB6E5B",
"i. c #B16A51",
"p. c #A57254",
"a. c #AB7354",
"s. c #A47A56",
"d. c #AD7956",
"f. c #A4745B",
"g. c #AC745B",
"h. c #A47A5B",
"j. c #AC7B5C",
"k. c #B27454",
"l. c #BA7654",
"z. c #B47955",
"x. c #BB7C55",
"c. c #B2765A",
"v. c #B37B5C",
"b. c #BB7D5C",
"n. c #936E63",
"m. c #8A7466",
"M. c #997865",
"N. c #A67665",
"B. c #AB7363",
"V. c #AC7C63",
"C. c #A27C6A",
"Z. c #AD7C6B",
"A. c #B57564",
"S. c #B37B63",
"D. c #BA7C64",
"F. c #B47C6A",
"G. c #BA7D6A",
"H. c #A57B70",
"J. c #B27E71",
"K. c #C17F5B",
"L. c #9B815C",
"P. c #A8845E",
"I. c #B5805D",
"U. c #BE825C",
"Y. c #96856E",
"T. c #A88466",
"R. c #AC836B",
"E. c #B38365",
"W. c #BC8263",
"Q. c #BB8866",
"!. c #B5836B",
"~. c #BA836C",
"^. c #B6896B",
"/. c #BC8B6B",
"(. c #AB9469",
"). c #AF976C",
"_. c #AA8775",
"`. c #B48572",
"'. c #BB8472",
"]. c #BD8C73",
"[. c #B68B78",
"{. c #BA9575",
"}. c #BAA275",
"|. c #C2845C",
" X c #C28463",
".X c #C58A64",
"XX c #C78A67",
"oX c #C38B6C",
"OX c #C8916E",
"+X c #D0956E",
"@X c #C68B72",
"#X c #C38D72",
"$X c #C38C7A",
"%X c #C59275",
"&X c #C99273",
"*X c #C4937B",
"=X c #C89879",
"-X c #C6A87B",
";X c #CFB47E",
":X c #9A8D8A",
">X c #AE938A",
",X c #BCB58E",
"<X c #B0A59A",
"1X c #BDB898",
"2X c #B3ACA4",
"3X c #C89685",
"4X c #CB9A82",
"5X c #D09E87",
"6X c #C5AF81",
"7X c #CAB789",
"8X c #D4B886",
"9X c #DABC8A",
"0X c #C4BA94",
"qX c #C1B4A1",
"wX c #DCC387",
"eX c #DDC28D",
"rX c #C6C09D",
"tX c #DCC694",
"yX c #E7CA8F",
"uX c #E7CC94",
"iX c #ECD396",
"pX c #EDD499",
"aX c #E8D39D",
"sX c #F0D79B",
"dX c #F6DA9A",
"fX c #F4DB9E",
"gX c #F6E09E",
"hX c #CCC9AD",
"jX c #D9CFAA",
"kX c #DCD0A8",
"lX c #D6D2B4",
"zX c #E5D2A3",
"xX c #E8D6A6",
"cX c #EEDDAC",
"vX c #F7DEA3",
"bX c #F8DEA4",
"nX c #F5DDAA",
"mX c #F8DCAA",
"MX c #E3D9B6",
"NX c #EDDDB3",
"BX c #F2DEB1",
"VX c #EEE0AF",
"CX c #F5E1A3",
"ZX c #F9E0A4",
"AX c #F3E1AD",
"SX c #FAE2AA",
"DX c #F2E1B1",
/* pixels */
"mXvXvXbXvXvXvXvXbXvXvXvXZXvXvXmXvXfXZXfXZXbXfXZXbXZXfXZXbXfXZXZXbXfXgXbXbXbXfXZXZXbXZXbXfXvXZXSXAXVXCXCXCXCXfXdXZXgXgXgXfXgXCXCX",
"mXbXvXvXAXvXvXvXZXvXZXmXvXvXvXZXfXbXbXvXZXfXbXbXfXZXbXvXZXfXZXfXbXZXZXfXfXZXfXZXvXvXfXvXZXvXdXsXfXCXxXgXZXvXfXfXdXgXgXfXdXgXgXgX",
"mXvXvXbXvXvXZXmXvXvXvXvXvXmXvXvXZXbXbXbXZXbXbXZXgXgXfXZXgXZXvXZXvXgXZXgXvXvXZXbXZXZXCXCXZXZXsXiXsXfXgXgXvXfXiXiXZXbXZXZXCXCXCXCX",
"mXmXvXvXvXvXvXvXmXZXvXvXZXvXvXCXZXZXfXbXfXZXbXfXiX8X).P. . . . .{  .P.}.;XwXuXfXvXfXCXgXfXfXsXiXsXsXsXgXvXfXpXaXbXbXvXfXgXgXfXfX",
"mXbXvXbXvXmXvXZXvXZXvXvXvXvXmXCXZXvXbXCXvXfX8XL.Q  .@.@.%.$.%.@.@.Q Q Q Q Q L e i $.T.}.;XwXiXdXiXiXpXfXvXZXnXnXAXDXnXmXCXCXvXfX",
"mXvXvXvXvXvXvXvXnXvXvXZXvXvXvXvXfXvXvXfX}.[ [ $.T.M.,.h.P.s.%.-.s.o.2.%.,.@.{ Q Q h i 0 < @ : >.;XiXsXfXnXnXBXBXBXNXNXBXVXmXSXSX",
"mXbXvXvXvXvXmXvXvXvXvXmXvXCXvXvXdXfXsX(.y Y ,.T.).[._.T.h.!.R.s.d.P.9.h.s.#.,.,.@.{  .[ j 0 8 o   $.yXAXcXNXMXMXjXjXkXkXzXxXvXvX",
"mXbXmXvXZXvXZXvXZXvXvXvXvXmXvXZXsXpX$.s j [ ..E +.g.j.I.S.S.S.R.S.E.S.p.j.p.p.,.=.O. .$. .z i # @   . wXDXNXMXMXlXjXjXjXzXxXnXnX",
"mXmXvXvXvXnXvXvXvXvXvXbXvXvXvXvXCX).0 y i F R 1.0.b.U. X XK.K.K.v.z.k.a.D.g.a.f.+.-.@.=.O.&.{ M s #     (.7XlXlXlXlX1X0X0X7XxXzX",
"mXvXCXvXvXvXZXvXvXvXbXZXbXbXvXvXuXj 0 y F ~ 3.z.x..X|.|..X|.K.|.U.x.x.w.x.x.b.z.6.a.+.X.O.{ | [ j 8 7 . X 0XlXhXlXlX1X0X0X7XzXzX",
"mXvXmXZXvXZXZXvXmXvXvXfXvXZXmXvXP.i e P ~ 8.x.|.|.|.+X+X&XXX.X|. Xx.|..XXXXXx.w.7.7.1.R E U A C j j p 7 . L.0X1X1XrX1X,X0X7XzXxX",
"nXvXvXvXvXvXmXvXvXvXvXxXvXmXvXuXj i Y ~ 1.w.|.|.|.|.+XXX+XXX.X.X.X|.|.|.|. Xw.w.7.3.^ ^ G G C C u i k 8 7 . ,X0X1X1X,X0X7X8XzXxX",
"nXvXbXvXmXvXvXvXZXmXvXvXvXvXvX).h P ~ ^ ^ U.|.|.XXXX.X.X.X.X|.|..X|.K.|.|.|.x.w.w.^ 3.^ D D C C w t 0 0 p , (.kXkXMXxXxXzXzXmXSX",
"mXvXvXmXvXvXvXvXvXvXvXvXvXvXtX} Y ! o.2.q.I. X.X+X.X.X+XOX.X.X.X|.|.|.|.|.|.K.w.8.w.3.^ G G C C ; 6 % 1 p p N xXzXxXzXpXzXaXpXvX",
"mXvXvXZXvXvXvXvXpXfXvXvXpXpXL.} Q ! ~ 3.q.U.D.@X*XOXXX&X=XOX.XXX.X.X|.U.x.U.w.w.8.q.0.^ R G D C ; ; * * s k s 8XbXvXmXbXbXbXbXSX",
"nXvXvXvXvXvXvXvXpXvXvXvXpX8X>.{ ! ~ ^ 3.d.U. X XXX@X&X&XoX&X&XOXOX.X.X|.|.U.x.8.w.q.3.^ ^ R D C ; ; q 2 b [ s (.mXvXbXbXdXbXdXbX",
"mXmXvXvXvXvXmXvXZXvXvXmXCX}.>.=.E ~ ^ 0.d.U./.%X/.%X#X*X4X4X4X3X=X&XoX XW.|.x.x.q.q.^ ~ ~ G D 6 ; 6 C - i &.v >.CXCXvXbXmXZXbXbX",
"mXZXvXvXvXvXvXvXvXvXvXvXCXm.m.=.E ~ 2.0.q.Q.&X&X%X%X*X*X=X5X5X=X%XoXQ.oX/./.W.z.q.0.^ ! R G A e 6 6 e q y l M g bXCXvXvXbXbXbXbX",
"nXvXmXvXvXvXvXvXmXZXvXvXvXN m. .P ~ 2.0.7.b.{.#X#X#X%X*X=X=X=X4X%X#X~./.l.W.b.j.0.9.! G R F C 6 w q e u y M M a bXvXvXsXvXvXvXbX",
"mXbXZXbXvXvXvXvXvXvXvXZXeXv m.@.! ~ 2.3.z.Q.oX%X&X&X#X%X#X*X5X=X=X%X#XoXz.D.z.k.0.o.! G ! F F e q e u I l v v 8 bXvXsXvXvXvXvXbX",
"nXvXvXvXvXvXvXvXvXvXvXmX7XB M.....2.p.z.b.W./.%X$X&XOX&X&X*X4X%X*X#X/././.x.z.a.6.X.P X.! F e 6 6 e t I } M g , vXvXvXvXvXvXvXvX",
"nXvXvXvXvXmXmXvXvXvXZXvX}.B m.X.2.X.I.v.^./.*X*X%X$X%X*X$X&X=X*XOXoXU..XW.b.z.0.5.X.o.2.R F e 6 6 e q j &.} p , vXvXvXvXvXvXvXvX",
"mXvXpXpXvXmXvXvXvXvXvXvX}.m.*.5.p.#.s.s.R._.`.^.'.3X*X3X*X*X=X&X@X XU.b.z.v.k.a.5.X.5.~ P A 6 6 6 q e l M b p o vXvXvXvXbXvXmXvX",
"mXsXpXpXfXvXvXvXCXvXvXcX}.M | r.5.<.M.} B &.' :.N.`.[.3X*X*X3X3X3X@X/.D.W.D.z.6.2.5.X.E P A q - * 0 y b m v 8 @ mXvXvXvXvXmXvXvX",
"nXvXmXvXvXvXbXvXbXvXvXvX>.M _ +.T ( *.*.B m *.;.-.f.!.3X].].3X3X$XG.'.G.S.a.k.a.4.p.E U L A w - 6 y y m k s 8 @ vXvXvXvXvXvXvXbX",
"mXmXvXvXbXbXvXvXbXvXmXpXg B +.o.=.:.C.M.H.>X_._.Z.Z.`.{.*XF.>X@XF.S.V.T.V.!.h.+.o.o._ L E U w w e f h m g p 8 , vXvXvXfXvXvXvXvX",
"mXvXbXvXbXbXbXvXmXvXvXtXa *._ #.:.,.,.v a 1 n M.[.C.N.!.#XS.[.!.f.N.:.' &.n.M.=.*.( L J ` U A 6 e h l m k g p >.vXbXvXvXvXvXmXbX",
"mXbXvXvXAXvXvXvXCXZXZX-XM <.U h.T.V.l a X c > n M.C.C.E./.a.!.V.f.y.C.R._.M.*.&.( ( d t U R C C e h b } k s p L.xXbXmXvXvXvXvXbX",
"mXvXvXmXvXZXbXvXvXvXxX,.&.=.~ s.j.,.| M.*.n V *.*.M.M./.Q.0.d.f.V.>X>Xn.' *.M.R.M.| f t J E H w e f ( M v g p (.pXpXvXvXpXpXsXvX",
"mXvXZXvXvXvXvXvXvXvX9X=.&.O.o.s.P.h.].>X>X>XH.;.' ;.p..XU.5.E O.C.H.( x X X > m V.O.2 3 L J U H e h [ l k g p (.pXvXvXvXpXpXvXvX",
"mXvXmXvXvXAXbXvXvXvX-X{ M.! o.s./.^.].{.[.H.N.N.-.s.b.|.q.^ F T ( ( ' m.c c c a } f.f * t H H r r j &.M v s p ).vXvXvXvXvXvXvXmX",
"mXvXvXvXvXvXvXbXvXxX=.-.<.E o.E.Q.{.].[.`.N.f.N.a.j.x.U.q.R F Y =.<.:.H.:Xn.;.| 1 C.@.I H H u r u ( *.&.v v < }.vXvXvXvXvXbXbXvX",
"bXZXZXfXZXZXZXfXfX}.k d.@.E 5.j./.&XXXG.E.b.v.S.k.k.b.K.8.K S L  .M.C.`.>X>X[.F.:.=.{ u 2 t u u T { *.M k v 8 eXvXvXvXfXZXZXbXfX",
"bXfXbXbXfXfXbXbXvX9 { I.@.! 5.0.oX.XXX+XOXQ.W.b.k.k.K.|.8.K S H p.f.Z.`.`.>X`.'.N.T.=.r 3 t A A Q *.( k g a 8 pXvXvXZXZXbXfXZXZX",
"bXvXZXZXZXbXfXZXvXB V.R.U X.a.z.W..X.X@XXX XoXW.x.z. X X8.K S K 5.D.v.g.d.g.Z.!.R.V.#.e 3 H C A  .=.v g g 0 A fXvXfXCXfXZXZXvXfX",
"bXbXfXbXZXfXbXZXgX;Xg.X.P X.p.v. XoX@X$X@X XG.S.t.b.D.b.7.K J K 4.t.b.W.D.D.c.k.6.p.=.u Z A 4 U T &.l k j A o.bXvXvXbXvXfXfXbXZX",
"mXvXvXvXbXfXZXZXCX9Xp.d._ X.r.a.W.#X4X$X@XF.u.e.t.D.D.8.W S 4 Z a.D.G.G.oXW.D.k.6.#.p.T C H Z C h } j j u r  .gXbXZXbXgXZXvXgXbX",
"bXvXbXvXZXfXbXfXCXeX5.{.o.X.5.a.D.$X3X@XF.+.4.i.i.@X$XD.K J Z 4 N.G.@X@X&X@Xb.c.5.r.%...A Z = ; t y b y u y  .dXfXfXbXvXvXvXfXbX",
"bXbXfXbXZXbXfXbXbX-Xp.{.=.X.5.a.D.$X$XG.u.y.4.` e.B.G.u.R K J 4 ' '.[.3X3X*XD.c.X.p.#.X.A ; = 6 6 * r e u f ,.dXZXbXZXvXZXfXZXbX",
"bXZXfXbXfXbXbXbXbX(.Z.R.#.X.p.g.~.$X'.F.S.y.` 5 d ) ) / J 5 Z Z 4 B.G.$X3X$X'.a.X.,.U L A = 3 3 * % r 0 r e ).iXZXfXfXvXZXbXZXfX",
"pXiXiXiXsXsXvXbXZX%X/.T.#.o.p.j.'.'.~.'.S.k.e.) ] e.' n 5 o / J 5 Z.'.$X$X$X~.e.E +.H C w q - * * * q 1 + e 8XsXsXsXvXZXZXbXfXfX",
"aXiXiXiXsXsXbXbXZX&XQ.P...o.a.S.~.!.'.F.v.c.c.u.B.J.B.B.] / ) J ` A.'.G.~.G.c.+.E _ L A u - * * & q e & $ u sXsXfXfXfXfXbXbXfXvX",
"iXiXsXsXfXfXfXbXbX9XQ.~...X.d.E.~.E.~.v.a.c.D.D.J.A.J.J.A.] ] ) ) y.`.G.D.S.g.+.E E U F e 6 & % & q Y e $ P.bXfXfXfXZXbXZXZXZXbX",
"sXsXsXfXfXbXbXbXbXdX-XQ...o.p.E.E.E.E.j.d.D.~.G.J.A.H.J.A.e.] ) ) +.F.F.F.G.B.+.T T U P w % & & + y _ u + 8XfXbXZXbXbXvXbXfXbXbX",
"bXfXfXfXbXfXZXbXfXZXfX9X9.#.a.^.E.!.E.h.S.V.!.].J.B.J.J.V.B.r.X.K ` V.~.F.~.v.o._ E L L q * & & & I l 0 j fXbXbXZXbXZXfXfXfXZXbX",
"bXbXZXbXbXbXfXfXbXbXbXbX8X2.p.^.^.E.V.y.p.y.y.B.J.J.J.A.Z.V.N.-.U ) V.F.!.~.S.o...T A F q * % & 6 j y % }.fXbXfXbXbXZXbXZXbXbXbX",
"mXbXZXbXbXfXZXbXfXZXZXfXwX#.p././.E.y.` 5 5 / / ] / ] ] e.e.y.;.+.O.y.!.^.].E.5.X.U A L t 3 % & 2 q u L eXvXZXfXvXfXfXZXZXZXfXZX",
"mXbXZXfXbXbXbXZXbXvXZXZXuX#.d.{./.T.n.5 > n :X<X<X2X>X:X' / / ` O.-.f.V.].{.E.9.X.E u L u 2 % & t w L p.vXbXbXbXvXbXbXvXvXfXbXbX",
"vXmXbXbXbXbXvXvXvXvXvXbXyXo.g.{.{.s.:.) : N B Y.:X:XY.:Xm.n < 5 ) -.V.V.!.{.^.p...P w A 6 % % $.8X{.T.eXmXvXvXvXmXvXvXvXvXvXmXvX",
"mXvXbXbXbXZXvXvXvXvXbXCX8X..a.].^.r.t.u.) ) <.>X2XqXqX2X<X>XY.*.n O.S.E.^.*X/.#...Y w A w % & 8XbXvXvXbXvXvXvXmXmXvXvXvXmXvXmXvX",
"bXZXvXvXbXfXfXbXZXvXvXvX8X! r.^.E.a.c.a.a.c.a.u.e.-.H._.C.Y.M.} ' d f.E./.{./.X.E L ; u w % # wXbXfXiXiXfXvXvXvXvXvXvXvXvXvXvXZX",
"mXfXvXfXfXbXZXbXvXvXvXbXwX@.+.!.E.d.c.a.v.E.S.!.~.S.B.a.r.r.+.+.+.+.( V./.%X^._ U A q e * & o uXbXfXpXpXvXbXvXfXvXvXAXbXvXvXvXvX",
"mXfXfXgXZXZXZXgXfXZXgXdXvX9X..s.E.z.c.b.k.A.F.F.A.B.S.c.S.S.g.g.r.5.+.a.E.{.j.T L e - * & $ . iXZXvXvXfXbXZXZXZXvXZXbXvXvXfXvXvX",
"mXfXfXZXZXZXgXdXZXfXZXZXvXfXs.r.j.b.b.E.D.v.A.A.S.B.u.S.B.a.t.u.e.t.e.r.E./.s.L i * & & $ O N iXvXvXfXfXvXvXfXfXbXfXfXfXvXvXvXvX",
"mXfXfXZXgXgXfXiXfXZXfXZXZXgXuX%.p.a.W./.W.S.A.A.A.A.A.u.c.v.a.c.a.a.a.5.j.E.#.q 4 + $ & + < tXvXiXpXpXiXsXpXsXpXbXfXsXsXfXbXvXvX",
"bXbXgXdXfXdXiXyXdXgXbXgXfXfXCXeXo.a.W.oX XD.G.G.G.G.'.G.S.S.S.z.a.5.p.r.g.r.I * 1 O + O , 6XmXbXiXuXiXiXpXdXsXsXbXsXiXpXfXvXvXfX",
"bXgXgXZXgXfXfXvXZXZXfXgXgXZXdXZX9Xr.v.oX XG.D.D.A.A.A.G.D.A.z.a.t.5.+.+.r._ 2 & + O O M tXvXsXyXyXiXsXsXsXsXvXZXfXZXbXfXbXfXZXZX",
"mXfXbXfXZXbXCXvXZXfXZXfXbXfXfXZXvX9XS./.#XG.G.G.G.G.G.G.G.D.c.t.r.X.E _ ( r 1 # O M 6XxXvXfXdXdXpXsXfXxXsXsXvXvXvXZXbXbXbXbXZXfX",
"mXbXbXvXbXvXvXvXbXfXZXbXvXbXZXZXvXvXvX8X*X~.~.'.G.G.G.A.A.S.c.e.+.I f d 0 < + <.yXvXbXbXvXbXdXdXfXvXvXvXvXvXvXvXvXvXvXAXAXvXbXvX",
"bXbXvXvXvXbXvXCXbXbXbXbXvXbXbXbXvXvXvXvXvXaX9X*XG.G.S.u.t.a.a.+._ 2 1 0 T.-XpXZXbXbXbXZXbXfXZXZXbXbXvXnXvXvXvXmXbXvXbXvXbXbXvXvX",
"mXbXvXbXvXmXvXmXmXvXmXvXvXvXvXmXZXvXvXvXvXZXvXmXmX8X=X].j.y.+.I } }.eXvXfXfXZXZXfXfXZXfXfXfXfXvXvXmXmXbXvXvXmXvXvXmXvXvXbXvXmXvX",
"mXbXvXmXZXvXZXvXCXvXZXZXbXvXvXZXmXvXmXZXvXmXvXvXmXmXbXbXvXmXZXmXvXvXvXvXbXfXdXfXgXdXgXfXfXfXvXvXvXvXvXmXmXmXmXvXmXvXmXmXbXmXmXvX",
"mXvXvXmXvXmXmXvXmXvXmXvXmXvXmXvXvXvXmXvXmXvXmXvXmXvXbXmXvXvXvXZXZXvXvXvXbXbXZXgXgXZXCXCXCXCXZXvXvXmXmXmXmXSXmXvXmXnXmXvXmXmXmXmX",
"BXBXBXBXNXnXBXBXBXNXNXnXBXBXBXBXBXBXBXBXBXNXBXBXBXBXBXBXBXBXNXDXNXNXNXnXAXAXAXAXcXcXAXVXDXDXVXNXDXDXBXNXBXDXDXBXBXNXBXBXNXBXBXBX"
};
