/* XPM */
static char *_9851b85a95b485a85d300b423fe25e71wF0qx4BMwTGo9wE[] = {
/* columns rows colors chars-per-pixel */
"64 64 156 2 ",
"   c #4A6C36",
".  c #466C3C",
"X  c #4A6C3A",
"o  c #4F703C",
"O  c #56713C",
"+  c #5B743F",
"@  c #466D40",
"#  c #486E42",
"$  c #4E7144",
"%  c #4F7249",
"&  c #547242",
"*  c #5B7440",
"=  c #527349",
"-  c #607846",
";  c #657A4D",
":  c #677C52",
">  c #6A7E54",
",  c #607C5C",
"<  c #6E815C",
"1  c #71835E",
"2  c #778867",
"3  c #7D8D6C",
"4  c #808F70",
"5  c #839274",
"6  c #879578",
"7  c #8A977B",
"8  c #8A987C",
"9  c #C7B47E",
"0  c #8C9C8A",
"q  c #919D83",
"w  c #929F89",
"e  c #96A089",
"r  c #99A48C",
"t  c #9EA792",
"y  c #BCB68E",
"u  c #A2AA96",
"i  c #A6AE9B",
"p  c #BBB594",
"a  c #B5B398",
"s  c #BEBA9B",
"d  c #ACB3A2",
"f  c #AEB6A9",
"g  c #B4BAAA",
"h  c #B8BFAF",
"j  c #CAB782",
"k  c #C3B68D",
"l  c #C9B789",
"z  c #C7B98F",
"x  c #CABA8D",
"c  c #C0B791",
"v  c #C4B993",
"b  c #CBBD93",
"n  c #C4BD9A",
"m  c #C9BE99",
"M  c #C3BFA1",
"N  c #BBC1B3",
"B  c #BDC4B9",
"V  c #C6C09D",
"C  c #CCC29B",
"Z  c #D2C69D",
"A  c #D6C99E",
"S  c #DBCC9F",
"D  c #EED08F",
"F  c #E7CF95",
"G  c #E9CF92",
"H  c #E6CF9A",
"J  c #E7D197",
"K  c #ECD295",
"L  c #E5D19E",
"P  c #EDD49A",
"I  c #EFDA9C",
"U  c #F3D493",
"Y  c #F4DA97",
"T  c #F0D79A",
"R  c #F4DB9D",
"E  c #FADD9D",
"W  c #F3E09F",
"Q  c #F9E09D",
"!  c #C8C4A6",
"~  c #CECAAA",
"^  c #D6CAA3",
"/  c #DCCFA4",
"(  c #D3CDAC",
")  c #DBCFA9",
"_  c #DDD1A5",
"`  c #DCD1AB",
"'  c #C0C4B6",
"]  c #C1C5B8",
"[  c #C7CABE",
"{  c #C8CBBF",
"}  c #D0CEB4",
"|  c #D5D1B5",
" . c #DAD5B5",
".. c #D8D5B9",
"X. c #DDD8B8",
"o. c #E4D2A3",
"O. c #EAD5A4",
"+. c #EDDBA4",
"@. c #E3D4AA",
"#. c #EAD7A8",
"$. c #E6D8AA",
"%. c #EFDCAC",
"&. c #F7DEA3",
"*. c #FCDFA3",
"=. c #F8DDA4",
"-. c #F8DEA4",
";. c #F5DDAA",
":. c #F2DEAD",
">. c #F4DEAE",
",. c #F9DBAA",
"<. c #F8DDA9",
"1. c #F8DCAA",
"2. c #E3D7B1",
"3. c #E4D8B2",
"4. c #E5DBB7",
"5. c #ECDDB3",
"6. c #EFDFB3",
"7. c #EEDEB6",
"8. c #E1DBBA",
"9. c #F2DEB1",
"0. c #F2DFB2",
"q. c #EEE0AF",
"w. c #F5E0A3",
"e. c #F6E2A2",
"r. c #F9E2A2",
"t. c #F8E0A4",
"y. c #F9E2A5",
"u. c #FCE0A5",
"i. c #F3E3A8",
"p. c #F5E2A9",
"a. c #F2E0AD",
"s. c #F3E1AE",
"d. c #F3E1AF",
"f. c #FAE1A9",
"g. c #FFE4A8",
"h. c #F9E2AE",
"j. c #F3E2B1",
"k. c #C3C9C1",
"l. c #CBCEC2",
"z. c #CDD0C5",
"x. c #CED2CA",
"c. c #D1D4C9",
"v. c #D6D8CF",
"b. c #DCDED5",
"n. c #DEE0D7",
"m. c #E7E7DF",
"M. c #E7E7E0",
"N. c #E8E7E1",
"B. c #E7E9E5",
"V. c #EAEAE3",
"C. c #EDEEE9",
"Z. c #F3F1EC",
"A. c #F7F6F0",
"S. c #F9F7F2",
"D. c #FDFBF7",
"F. c #FEFCF8",
/* pixels */
",.-.-.-.-.-.&.&.&.;.;.-.-.&.&.&.T &.w.R &.&.&.*.&.R w.u.r.*.R &.*.&.Q &.&.&.r.R w.*.=.&.&.&.w.r.p.i.i.w.&.&.&.E E Q W Q W W W w.",
",.-.-.-.;.&.&.-.-.-.&.&.&.-.p.;.&.&.u.*.&.&.&.&.&.&.r.R &.&.w.&.&.&.R &.&.&.*.w.*.=.&.&.&.R R T +.&.I w.-.*.R R E R R R R R W W ",
";.-.&.&.-.&.&.-.&.-.-.&.&.-.&.&.w.*.*.&.&.r.u.&.*.*.&.&.&.&.&.&.R &.&.&.w.R &.&.-.-.&.*.w.&.T P I R &.w.&.R T F Q -.w.&.e.e.e.e.",
",.;.-.&.&.-.p.&.&.p.&.-.-.-.-.-.&.&.&.&.&.R &.&.&.w.R &.r.R &.&.w.u.&.&.&.&.*.&.R &.&.-.&.R T K I T T R &.R P H -.&.&.;.w.R R Q ",
",.-.-.&.&.-.-.&.-.-.&.&.&.;.-.-.*.&.&.&.&.&.w.&.&.&.&.*.&.&.u.E &.&.R &.&.&.&.R P P R R T K K K D D U R &.1.;.>.d.>.>.;.p.*.&.&.",
"1.-.-.;.&.&.-.;.-.;.&.&.&.&.-.&.*.w.&.&.&.*.&.&.&.&.*.w.&.&.w.R u.&.r.&.*.&.u.w.R T R R T K T R U U T &.&.9.9.9.5.5.9.>.;.r.p.f.",
"1.-.-.&.;.&.&.&.&.&.-.-.&.&.&.&.T R R &.&.*.&.R R &.&.R R &.&.&.R R &.&.w.R R *.R *.t.t.R R R r.Q E E -.>.5.2.2.` ` ) / o.O.+.&.",
"1.-.-.&.-.-.-.&.&.&.-.-.-.p.;.&.T T &.&.&.&.&.R w.&.*.&.W u.&.&.r.e.&.&.u.&.&.&.&.-.f.t.-.-.&.*.E E *.,.9.7.4.8.| ( ) ) @.$.,.,.",
">.&.-.-.-.-.-.&.&.&.&.-.;.&.&.&.&.&.&.r.-.p.R &.r.R &.R &.&.*.&.&.&.&.&.&.&.&.R w.&.*.&.R r.&.r.r.R f.d.y k  ...| | s v x l o.L ",
"1.&.&.-.&.;.&.&.-.;.-.&.-.-.&.;.&.R R r.*.*.&.&.*.&.&.&.&.&.&.&.*.&.w.R &.r.&.r.*.&.R &.u.&.&.R *.R 1.d.x C ( ~ } | s V v x o.L ",
"1.-.p.&.&.&.-.&.-.&.&.&.-.1.&.&.R &.&.=.&.&.&.&.&.&.&.&.R &.R &.R &.u.&.&.R *.R &.&.w.&.R w.&.&.*.*.&.%.S A n p s n p y x x o.#.",
"1.-.&.-.;.-.-.;.-.&.+.&.&.&.&.&.&.&.&.*.R &.R *.&.&.r.&.&.R &.&.w.&.&.&.&.&.&.u.R &.*.&.&.&.*.r.-.i.+.i.$.@.C s p n y v x x L O.",
"1.-.&.&.-.-.&.&.1.=.=.-.-.-.&.-.&.-.t.t.&.R &.&.&.*.&.&.R &.&.u.u.E &.&.&.&.R w.W u.&.&.R r.&.R T t.R p.d.q._ _ @.@.@.#.o.o.,.h.",
"1.-.&.&.-.-.&.-.&.&.&.&.&.+.R +.R R -.-.&.R &.&.&.R R R &.u.&.&.&.&.&.*.*.W &.&.&.&.&.&.&.&.&.&.R Q R w.#.=.L +.o.O.o.H J H P =.",
">.&.;.-.,.-.&.&.P T =.R T P F T P I &.*.&.R R &.-.R I T &.&.*.=.&.&.&.R &.R r.&.&.R w.&.&.&.&.R Q Q Y W K K F J =.=.-.=.-.*.u.g.",
"1.&.-.-.&.&.&.&.P &.-.-.T F F K J P T &.&.&.&.*.r.T K K P &.&.-.&.u.&.&.&.&.&.*.&.&.u.E u.&.&.*.Q R Y Q K U F F 1.=.*.-.R -.R -.",
">.-.&.&.&.&.-.-.-.-.=.=.=.-.=.-.P O.P P P I R w.Q r.r.r.*.-.*.,.*.*.*.u.u.Q R w.R &.*.=.=.-.-.*.E R r.*.*.&.&.=.&.&.-.-.f.w.-.*.",
",.-.+ * + * * * * * * * * * + * & * + O * O + + + + + + + + * * * * * * + + * + + + + * * * * + + + * + + + + * * + + + * * -.-.",
"1.=.* * + & * * * + + - * * * * + + + + + + + + * * * * + * * * * * + + + + * * [ M.m.m.N.M.m.m.m.m.m.m.m.m.m.m.b.+ + + & * -.-.",
"1.=.* * + + * * + + + * + * * + + + + + + + + + * * * * + + + + * * + + * * * * b.F.F.D.F.F.D.D.F.F.m.l.l.F.F.F.Z.+ + O * * -.-.",
",.-.+ + + + * * * * * * * * + + + + + + + + + + * * * * * * * * + * + * * & * * b.F.F.F.D.D.D.D.F.F.{ + + F.F.F.Z.* + + + * -.-.",
",.&.+ + + * * * * * + * * * + + + + + + + + * * & * & & & & * O * + * * * * & * b.F.F.F.D.D.D.D.F.F.{ + + F.F.F.Z.+ + * * + =.*.",
",.&.O + + * + + * + + + * + * + + + * * * & $ & $ & & & $ o o o * * * * & O O $ b.F.F.F.F.F.F.F.F.F.F.F.F.F.F.F.Z.+ + * * * =.&.",
">.P O + + * * + * + + - * * * + + + * * * & g B & $ $ $ $ $ o o & & * & & & & O b.F.F.F.N i i i i i i N F.F.F.F.Z.* * + + * ;.=.",
",.-.* * + * * * * * * * * * * + + + + + $ $ x.B.g % % % = = % $     & & & & X X b.S.Z.x.2 & O * + + * 3 c.D.D.D.Z.* * * * * =.=.",
",.-.* * * * * * + * + + + + * * O O + * # = x.F.F.0 , % % % % $ X   & & & o   X b.A.v.& 7 w 3 + + + * + * D.F.D.Z.+ + + + * &.&.",
"1.-.* * * * * * * + + + + + * + + + < X # @ x.S.F.F.0 % @ @ @ o     & * $ * $ * b.c.* * C.F.v.O O O O O O D.D.D.Z.+ + + * * -.-.",
"1.-.* * * + * * l.A.A.S.S.Z.S.S.S.S.Z.Z.Z.C.S.D.F.F.A.k.@ . . .     O $ O & o & b.c.& + V.N : * O O g m.O 1 1 1 < + * * & * -.-.",
"1.-.* * * + + * c.D.F.F.F.F.F.F.D.D.D.D.D.D.D.D.S.F.F.B.B . . . & O * + * & * % v.V.c.c.A.g O O O ' N.A.c.c.w + O + + + + O R &.",
"1.-.* * * * * * c.F.D.D.F.F.F.F.D.D.D.D.D.D.S.D.A.F.S.S.B.f = @ O O O + O * * * m.F.F.F.D.g O O O N.D.D.D.F.v.g d + * + O O T &.",
"1.&.* * * + * * c.D.D.D.D.D.D.F.D.D.D.F.D.F.D.F.D.D.S.D.F.F.0 < * * + + O + * + b.F.D.D.D.g - + * N.D.F.F.F.F.F.Z.+ * * * * t.f.",
"1.-.* * * * * * c.D.D.D.D.D.D.F.D.D.F.F.D.D.D.D.D.D.F.D.F.F.D.f * * + + O O + + b.F.D.D.D.g * + + N.F.F.F.F.F.F.Z.* + + * * -.-.",
"-.*.+ + + + + - c.F.F.F.F.F.F.F.F.D.F.F.F.F.F.F.F.D.D.D.D.F.w 1 * * + + * + + + m.F.F.D.D.g + + + 3 { F.F.F.F.F.Z.+ + + + + Q r.",
"-.E - + + + + + c.F.F.F.F.F.F.F.F.F.F.F.F.F.F.F.F.F.D.D.Z.g ; + * * + * + 5 c.c.Z.F.D.D.F.g e c.+ + ' F.F.F.F.D.Z.+ + + + + &.*.",
",.*.+ + + + + + c.D.F.F.F.F.D.D.F.F.D.D.F.D.D.F.F.F.D.V.' * * * * + * + e [ F.c.c.c.c.c.c.r i D.+ + u n.F.F.D.D.Z.+ + + + + *.&.",
"-.&.+ + + + + + z.Z.A.A.A.A.S.S.Z.S.A.A.A.S.D.F.F.F.S.l.+ + * * * + + + z.F.A.O + + + + + < g D.1 - + 8 F.F.F.F.Z.+ + + + + &.R ",
"-.&.+ + + + + + + + + + + - + + * * * * + + c.D.F.F.w + + * + * + + + + z.m.+ + + + + + + c.F.F.F.e + e F.F.F.F.Z.+ + + + + r.*.",
"1.&.+ + + + + + + + + + + + + + * * * * + - c.D.F.q > + + + + * + + + + z.A.m.m.V.V.m.V.V.Z.F.F.F.8 + 8 D.D.D.D.Z.+ + + + + &.&.",
"-.&.+ + + + - + + + + + + + + + * * * * * * c.V.g * + * + * * * + + + + e g N g V.F.F.F.F.F.F.F.F.b.i 1 g D.D.D.Z.+ + + + + &.&.",
"-.&.+ + + + + + + + + + + + + + * + * * * + h ] * * + + * * + + + + + + + + + + n.F.F.F.F.F.F.F.F.F.{ + + S.D.D.Z.+ + + + + &.&.",
"P H O O + O + + * + + O + + + + * - + + O O O + O O + + + + O O + + - + + + + + m.D.D.D.F.F.F.F.D.D.{ + + D.D.D.Z.+ + + + + *.R ",
"P K O O + + + + + + O + + + + * + + + + + O O O O + + + + + + O + + + + + + + + b.D.F.F.F.F.F.F.D.D.D.D.D.D.D.D.Z.+ + + + + R &.",
"P P O O + + + + + + + + + * * * O + + + + O O O O O + O + O + + + + + + O + + V.S.F.F.F.F.F.F.F.F.F.c.q q D.D.b.7 + + + + + *.&.",
"T T + + + + + + + + + * + + * * O O + + + + + O O + O + + + + + + + + + + 3 l.F.F.F.F.F.F.F.F.F.F.l.r 3 { D.b.t + + + + + + &.&.",
"&.T + + + + + + + + * + * * + + + + * * + + + + * * * + + + * + + + O + + 7 m.m.m.m.M.m.m.m.m.m.m.7 + 6 m.m.u + * + + + + + r.-.",
"-.&.+ + + + + + + + + + + + + + * * * + + + + + * & * * * * + + + + + + * + + + + + * O * + + + + + + + + + + + * + + + + * &.*.",
",.-.*.&.&.&.E *.R &.&.&.&.&.&.&.-.&.&.&.&.=.*.-.-.&.&.&.-.-.&.&.u.u.u.&.&.&.R &.*.&.&.&.w.&.&.&.&.&.*.R &.&.&.&.r.&.&.&.&.&.&.&.",
",.-.&.&.&.*.-.*.&.&.*.&.&.R &.&.-.-.=.=.=.=.*.-.-.-.;.-.-.-.-.-.u.r.*.&.&.%.i.d.;.&.;.&.*.&.R w.&.*.-.&.-.&.*.&.&.&.&.&.&.*.&.&.",
"&.-.-.-.=.&.=.&.&.&.*.&.=.&.&.t.&.*.=.&.-.&.-.*.&.&.&.&.&.p.&.&.&.=.j.j./ ^ 2.` C Z 7.d.f.Y t.E &.-.f.-.-.&.;.&.;.-.;.=.&.&.-.-.",
",.-.-.;.*.&.&.&.&.;.&.&.&.&.;.&.&.&.&.&.&.&.-.-.&.=.=.;.&.&.&.&.#.p.j.j.@.} ( ~ ( ^ 3.O.s.R u.E r.-.&.;.-.1.&.-.;.-.-.-.;.&.-.-.",
"1.&.&.&.&.R R &.&.&.w.&.&.&.w.&.*.r.&.&.p.&.&.w.&.&.&.&.&.&.&.&.;.#.o.^ 2. .....| ~ Z C L K U K -.&.J J T -.-.&.&.-.-.-.&.&.&.-.",
"-.R &.&.&.*.&.*.&.&.&.&.&.&.&.&.R u.&.&.&.&.-.=.&.&.&.&.&.&.&.-.d.d._ ^ 8.8...} | ~ n v o.J J G -.R K P +.-.-.&.&.-.-.;.&.&.&.;.",
"1.R E R r.t.Q W r.R &.r.R r.R r.u.R Q r.r.w.w.W R W &.R r.R R p.9 j y z ( ( n a M n s k o.O.P I =.*.R &.*.-.w.-.&.*.&.&.&.T -.-.",
"-.&.W R r.r.W R R &.E R r.R &.E r.R u.R E E R E E w.E r.E r.&.r.j x C C ( ( ! M a p n x o.L L J -.T R =.&.&.&.T &.&.T &.&.&.&.-.",
"1.R R &.*.R T P r.E E &.R r.R r.R w.W E &.R R R &.E &.R &.&.R &.O.o.L A m c p p n m ` o.$.o.&.&.P K P K I T T U &.T T U &.-.-.&.",
"1.*.R Q R R K D R &.r.R r.R u.R R R u.r.r.R R P R r.R r.R r.r.&.L L +.o.b k b v k x o.$.L H ,.,.H K K K K T T I -.T J I T -.-.T ",
"*.W &.&.E r.&.R r.R R R w.r.E &.&.&.R *.R w.W R R r.w.R R w.&.&.i.&.>.#.O.o.o.o.@.L L O.&.&.T D G F T T P I &.-.w.r.&.&.&.&.&.w.",
"1.R &.&.&.R &.&.u.r.&.&.&.R r.W &.&.&.W u.R &.&.r.R &.&.r.R &.&.&.&.1.;.O.O.O.#.O.H L +.&.&.P U K I &.T P R &.-.-.-.-.&.&.&.&.*.",
"-.=.&.&.-.&.;.&.&.&.&.&.=.&.&.&.&.&.&.-.*.&.&.&.=.&.-.*.-.*.&.;.;.&.&.=.+.&.1.,.;.&.&.*.&.*.R Y &.&.-.&.&.+.-.-.-.-.;.-.-.&.=.=.",
";.=.-.-.-.-.&.&.&.*.*.&.&.*.&.&.-.&.&.&.&.*.=.&.*.&.w.&.=.=.-.&.&.&.-.-.=.R =.=.*.=.*.Q =.R *.*.-.&.,.-.&.&.;.-.-.-.-.-.&.;.&.&.",
"=.-.;.-.-.-.;.-.&.=.=.*.-.&.;.-.1.-.-.-.-.;.=.;.=.;.&.-.w.-.;.&.-.&.&.-.E =.=.E E u.R u.R R R &.=.&.;.*.-.-.;.-.1.&.&.1.;.-.;.-.",
"1.&.-.-.-.-.-.-.=.&.;.&.-.-.;.-.&.&.-.;.-.-.&.=.&.=.&.-.=.=.-.-.-.p.-.&.=.R E R R R W E R I &.&.&.,.&.1.-.1.1.-.&.&.1.&.-.;.1.&.",
";.=.;.-.&.;.1.&.;.;.&.1.-.-.-.-.&.1.&.&.1.-.;.&.=.=.;.;.=.;.-.-.;.&.=.&.&.=.&.R e.W w.w.i.p.&.&.&.1.1.1.1.1.;.1.1.1.;.1.=.;.;.1.",
"9.j.9.9.9.>.9.9.j.%.9.j.7.9.9.5.9.9.9.9.j.5.j.0.0.9.9.j.>.9.0.s.5.5.%.5.>.j.i.>.;.%.%.d.d.d.5.7.9.9.9.9.9.9.9.j.9.5.9.9.9.9.9.j."
};
