/* XPM */
static char *bc22db2fa92845e2f29cda13765e5049g9zI298VrPSLRGh1[] = {
/* columns rows colors chars-per-pixel */
"64 64 137 2 ",
"   c #BEAD7F",
".  c #C7B47E",
"X  c #9F9F9F",
"o  c #9FA09D",
"O  c #BCB68E",
"+  c #A1A49E",
"@  c #BBB594",
"#  c #B5B398",
"$  c #BEBA9B",
"%  c #A6AAA1",
"&  c #AEB3A7",
"*  c #B0B5A7",
"=  c #B1B6AB",
"-  c #B4BAAD",
";  c #B9BEB0",
":  c #C4B686",
">  c #CAB782",
",  c #C3B68D",
"<  c #C9B789",
"1  c #C7B98F",
"2  c #CABA8D",
"3  c #C0B791",
"4  c #C4B993",
"5  c #CBBD93",
"6  c #C4BD9A",
"7  c #C9BE99",
"8  c #C3BFA1",
"9  c #BDC4B9",
"0  c #C6C09D",
"q  c #CCC29B",
"w  c #D2C69D",
"e  c #D6C99E",
"r  c #DBCC9F",
"t  c #EED08F",
"y  c #E7CF95",
"u  c #E9CF92",
"i  c #E6CF9A",
"p  c #E7D197",
"a  c #ECD295",
"s  c #E5D19E",
"d  c #EDD49A",
"f  c #EFDA9C",
"g  c #F3D493",
"h  c #F4DA97",
"j  c #F0D79A",
"k  c #F4DB9D",
"l  c #FADD9D",
"z  c #F3E09F",
"x  c #F9E09D",
"c  c #C5C2A3",
"v  c #C8C4A6",
"b  c #CECAAA",
"n  c #D6CAA3",
"m  c #DCCFA4",
"M  c #D3CDAC",
"N  c #DBCFA9",
"B  c #DDD1A5",
"V  c #DCD1AB",
"C  c #C0C4B6",
"Z  c #C1C5B8",
"A  c #C7CABE",
"S  c #C8CBBF",
"D  c #D0CEB4",
"F  c #D5D1B5",
"G  c #DAD5B5",
"H  c #D8D5B9",
"J  c #DDD8B8",
"K  c #E4D2A3",
"L  c #EAD5A4",
"P  c #EDDBA4",
"I  c #E3D4AA",
"U  c #EAD7A8",
"Y  c #E6D8AA",
"T  c #EFDCAC",
"R  c #F7DEA3",
"E  c #FCDFA3",
"W  c #F8DDA4",
"Q  c #F8DEA4",
"!  c #F2DDAA",
"~  c #F4DDA9",
"^  c #F5DDAA",
"/  c #F3DDAD",
"(  c #F4DDAD",
")  c #F4DFAD",
"_  c #F9DBAA",
"`  c #F8DCAA",
"'  c #E3D7B1",
"]  c #E4D8B2",
"[  c #E5DBB7",
"{  c #E9DAB1",
"}  c #EFDEB1",
"|  c #EFDFB4",
" . c #ECDDB7",
".. c #E0D9B8",
"X. c #E2DDBC",
"o. c #F2DEB1",
"O. c #F2DFB3",
"+. c #EEE0AF",
"@. c #EFE1AF",
"#. c #F3E2A2",
"$. c #F5E0A3",
"%. c #F3E1A6",
"&. c #F8E0A1",
"*. c #FBE3A2",
"=. c #F8E0A4",
"-. c #FAE3A5",
";. c #FCE0A5",
":. c #F3E3A8",
">. c #F5E1A8",
",. c #F5E3A9",
"<. c #F2E0AD",
"1. c #F3E1AE",
"2. c #F3E1AF",
"3. c #F8E3A8",
"4. c #FCE1A8",
"5. c #FFE4A8",
"6. c #F9E0AE",
"7. c #F3E2B1",
"8. c #C3C9C1",
"9. c #CBCEC2",
"0. c #CDD0C5",
"q. c #CED2CA",
"w. c #D1D4C9",
"e. c #D6D8CF",
"r. c #DCDED5",
"t. c #DEE0D7",
"y. c #E7E7DF",
"u. c #E7E7E0",
"i. c #E8E7E1",
"p. c #E7E9E5",
"a. c #EAEAE3",
"s. c #EDEEE9",
"d. c #F3F1EC",
"f. c #F7F6F0",
"g. c #F9F7F2",
"h. c #FDFBF7",
"j. c #FEFCF8",
/* pixels */
"_ Q Q Q Q ~ $.Q Q Q R R Q Q Q ~ R R R R R R l R &.R R R R R l R R R &.R R $.R R Q Q Q R k R =.3.,.:.$.#.Q R R l l x x x z z #.#.",
"_ Q Q Q Q Q R R Q Q $.~ Q Q R R R &.l R R R R R R R &.R R R &.R R &.R R l R R R R Q Q Q R R k j P P R $.Q R l k l h k k k z z k ",
"~ Q ~ R R R Q Q ~ R Q Q R ~ $.Q Q R ;.R l R R ;.R R R R $.R R &.R R l R R R l &.Q Q Q Q &.R j a f k k #.R k j a $.Q $.$.#.$.#.#.",
"` Q Q R ~ Q Q $.$.R Q Q R Q Q Q &.R R R $.R R R R $.R l l R R R R R $.R R R R R k R R Q R k j a f j k k Q k d i Q Q R R R R x h ",
"_ Q R R R R R R Q Q R $.Q ~ $.R Q Q R R R Q R Q R l R l &.R R R R &.R R &.R R l j j k k d a a g a t g k R _ ! ! 2.o.( ~ $.Q Q l ",
"` Q ~ Q Q Q ~ Q ~ Q Q R Q Q Q R k R R R R R R &.R $.R R R R R $.R R R $.R R R $.j k k k j d j k g g j Q ` / o.O.| } o.o.( ~ 4.4.",
"` Q Q Q Q R R Q R R Q ~ R $.Q Q j k R R R E R k R R x R R R R l l R R l R R R R k R =.=.k k R &.l l l Q / { { ] V V m m K L P R ",
"` Q Q ~ ~ R Q Q Q $.Q Q Q ~ Q Q j k k R &.R R k R R R R &.R R R R &.R R R x R R R Q =.=.=.Q R l l l E Q o. .[ J F M N N I U ( 1.",
"~ R Q Q R R Q Q R R R R R R R R &.R R R &.Q R k R R k R R R R R R R R &.&.R R R l R R R R R R R E k =.2.  , F G F F @ 4 5 < K i ",
"` ! Q Q R R ` R Q Q R R ` Q ~ R k R R R &.R R R R R R l l R R R R R R R R R R R $.R R &.R &.&.R Q Q >.2.q q M b D F $ 6 5 2 K K ",
"` Q R Q R Q R R Q R R R Q ~ Q Q k R R R R R R R R R R R R k R R R R l R R R R R R R R l k $.R R Q Q R 2.r e 0 $ $ c @ @ 1 2 K L ",
"~ Q R R R ~ R ! Q ~ R f R R R Q R R R R R R l R R R R R R R k R l R R $.&.l R R R $.R R R R R Q R Q P 2.Y B q @ O 6 O 1 < 2 K L ",
"` Q Q Q Q ! R Q W W W W Q Q Q Q R R &.&.R k R l R R R R R k R W $.R &.R R R R R l $.R R R R R l h 5.k $.! +.m B I Y I U K L / 6.",
"` Q Q Q Q Q Q Q Q Q W W R P P k k R Q Q &.k R R R l R k R R W W R R R l R R x R R R &.R R R R R k &.k $.P R s P K K K i i i d R ",
"~ R ~ R Q Q R R d k Q P j d u j a j R R R R R R R k j j k W R Q R R R R R R R R R l &.R x R R l x x h x a d y d Q Q _ Q Q E E 5.",
"` ~ Q Q ` R R R d k Q Q j u u d p d R Q R k R R R j a a k R W Q R R E R x R R R R R R R Q Q R R h x h $.a a y y ` Q Q l R l k Q ",
"` Q Q Q Q Q Q Q Q Q Q Q Q Q ! R s L s d d j k &.+.f #.$.$.Q _ Q _ E Q E R R l Q k W Q R Q Q Q ` R R k $.R R R Q R Q Q Q 4.=.Q Q ",
"~ Q X X X X X X X X X X X X X X X + X X + X X X X X X X X % X X X X X X + X X X X X X X X X X + o o + + X X X X X X X X X X Q Q ",
"` Q X X X X X X X X X X X X X X X X X X X X X X X X X X X X X X X X X X X X X X 8.y.u.i.u.u.y.y.y.y.i.y.y.y.y.y.r.X X X X X Q Q ",
"~ Q X X X X X X X X X X X X X X X X X X X X X X X X X X X X X X X X X X X X X X r.h.h.h.h.h.j.h.h.h.a.9.9.h.j.j.d.X X X X X Q W ",
"/ Q X X X X X X X X X X X X X X X X X X X X X X X X X X X X X X X X X X X X X X t.j.j.j.h.h.h.h.j.j.S X X h.j.j.d.X X X X X Q Q ",
"_ Q X X X X X X X X X X X X X X X X X X X X X X X X X X X X X X X X X X X X X X r.h.h.j.j.h.h.h.h.j.S X X h.j.j.d.X X X X X Q ` ",
"~ Q X X X X X X X X X X X X X X X X X X X X X X X X X X X X X X X X X X X X X X r.j.j.j.h.h.h.h.h.j.j.j.h.j.j.j.d.X X X X X Q Q ",
"( f X X X X X X X X X X X X X X X X X X X X = 9 X X X X X X X X X X X X X X X X r.j.j.j.- + + + + + + ; j.j.j.j.d.X X X X X Q Q ",
"_ Q X X X X X X X X X X X X X X X X X X X X q.p.= X X X X X X X X X X X X X X X r.g.f.q.X X X X X X X X w.j.j.j.d.X X X X X Q Q ",
"_ Q X X X X X X X X X X X X X X X X X X X X q.j.j.X X X X X X X X X X X X X X X r.d.q.X X X X X X X X X X h.j.j.d.X X X X X R ! ",
"_ Q X X X X X X X o X X X X X + X X X X X X q.g.h.h.X X X X X X X X X X X X X X r.w.X X s.j.e.X X X X X X h.j.j.d.X X X X X Q Q ",
"` Q X X X X X X 9.f.f.d.f.f.f.f.f.f.f.f.d.d.g.h.h.h.g.8.X X X X X X X X X X X X r.q.X X s.; X X X X - i.X X X X X X X X X X Q Q ",
"` Q X X X X X X w.j.j.j.j.j.j.j.j.j.h.h.j.j.g.h.g.h.g.p.9 X X X X X X X X X X X r.a.q.w.g.& X X X 9 i.d.w.w.X X X X X X X X P R ",
"` Q X X X X X X w.j.j.h.j.h.j.j.j.j.h.h.h.h.h.g.g.g.g.g.p.& X X X X X X X X X X u.j.h.h.h.& X X X u.h.h.h.j.w.& % X X X X X k Q ",
"` Q X X X X X X q.h.h.h.h.h.h.j.j.j.j.j.j.j.h.h.h.h.h.h.h.h.X X X X X X X X X X r.h.h.h.h.= X X X a.h.j.j.j.h.h.d.X X X X X Q >.",
"` ~ X X X X X X w.h.h.h.h.h.j.j.j.j.h.h.j.j.h.h.h.h.h.h.h.h.h.& X X X X X X X X r.j.h.h.h.& X X X a.j.j.j.j.h.h.d.X X X X X W Q ",
"Q R X X X X X X w.j.j.j.j.j.j.j.j.j.j.j.j.j.j.j.j.h.h.h.h.h.X X X X X X X X X X r.h.h.h.h.* X X X X 9.j.j.j.j.j.d.+ X X X X R R ",
"~ R X X X X X X w.j.j.j.j.j.j.h.j.j.j.j.j.j.j.j.j.h.h.h.d.= X X X X X X X X w.w.d.j.j.j.j.* X w.X X C j.j.j.j.h.d.X X X X X R l ",
"Q R X X X X X X w.h.j.j.j.j.j.h.j.j.h.h.j.j.j.j.j.j.j.a.9 X X X X X X X X A h.w.w.w.w.w.w.X % j.X X + r.j.j.h.h.d.X X X X X R R ",
"Q R X X X X X X 0.f.f.f.d.g.f.f.d.g.g.g.d.g.h.j.j.j.g.8.X X X X X X X X 9.h.f.X X X + X + X & j.X X X X j.j.j.j.d.X X X X X R R ",
"Q Q X X X X X X o X X X X X X X + X X X X X w.j.j.j.X X X X X X X X X X w.u.X X X X X X % w.j.j.h.X X X h.h.j.j.d.X X X X X R R ",
"Q Q X X X X X X o X X X X X X X % X X X X X w.j.j.+ X X X X X X X X X X 9.g.a.i.a.a.a.u.u.d.j.j.h.X X X h.h.h.h.d.X X X X X R l ",
"W Q X X X X X X X X X X X X X X X X X X X X w.a.= X X X X X X X X X X X X * * * a.j.j.j.j.j.j.j.h.r.+ X * h.h.h.d.X X X o o R R ",
"W Q X X X X X X X X X X X X X X X X X X X X - C X X X X X X X X X X X X X X X X r.j.j.j.j.j.j.j.h.h.S X X g.h.h.d.X X X X o R R ",
"d a X X X X X X X X X X X X X X X X X X X X X X X X X X X X X X X X X X X X X X r.j.j.j.j.j.j.j.h.h.S X X h.h.h.d.X X X X X k k ",
"i a X X X X X X X X X X X X X X X X X X X X X X X X X X X X X X X X X X X X X X t.j.j.j.j.j.j.j.h.h.h.h.h.h.h.h.d.X X X X X R R ",
"d d X X X X X X X X X X X X X X X X X X X X X X X X X X X X X X X X X X X X o a.g.j.j.j.j.j.j.j.h.h.w.X X h.h.r.X X X X X X R R ",
"j j X X X X X X X X X X X X X X X X X X X X X X X X X X X X X X X X X X X X 9.j.j.j.j.j.j.j.j.h.j.9.X X 9.h.e.X X X X X X X R R ",
"R k X X X X X X X X X X X X X X X X X X X X X X X X X X X X X X X X X X X X y.y.u.y.u.u.u.u.y.y.y.X X X y.y.+ X X X X X X X R R ",
"Q R X X X X X X o + X X X X X X X X X X X X X X X X X X X X X X X X X X X X o o X o X o X o X X X X X X X + X X X X X o X X R R ",
"_ Q R R R R Q Q R R R R R R R k Q ` R R ! R R R Q Q R Q Q ~ ~ k R Q R Q Q R k R R R R Q Q R R $.R R R R R R R R R R R R R l R R ",
"_ W R R l Q ~ Q R R R R R j R R R R Q Q Q W W W Q Q =.Q $.R Q Q Q Q Q Q ! ~ ! / ~ ! $.Q Q R R k E R R R Q R R R R R R Q Q R E R ",
"Q Q ! W Q Q $.Q Q Q R Q Q Q Q Q Q Q Q Q Q Q Q R Q ~ R R R Q $.Q R ! 2.o.m n ' V q w +.7.&.k ;.j R Q 4.Q R R R Q Q Q R R ! ` ~ Q ",
"Q W W W $.R R R Q Q R R Q Q R %.Q R Q Q ~ Q Q =.Q Q Q R Q R Q Q R %.7.} I M D b M M ' L 1.l *.l ;.R R R R Q _ ~ ~ Q R R R R Q Q ",
"Q R Q R k R R k R R R R l R R R &.R R R Q R R Q R R R R &.R R $.P P K N ' J H H D b q q s a d a E P d d P Q R R Q Q Q Q R R Q Q ",
"` R R R R R $.R R R R R R R R R R R R R R R $.&.k R R R R $.k ~ 7.2.B n X.X.F D F b q , K s p a Q f a d k Q R R Q Q Q ~ R R Q ~ ",
"R R k x $.&.x Q x &.l $.R #.l R x R l R l $.x $.$.k l R x R R R . < : 4 M M $ # 8 6 @ 4 K L d a Q Q k R R R R R Q Q Q Q k R R R ",
"_ k k R &.&.l k R k R l k x R k R &.&.&.R R k x &.&.$.l $.k R Q > 2 q q M M v 8 @ @ 4 5 K s s d R Q R R R R R k R R k k R R R R ",
"` l k l &.k j a k &.&.R R x &.R k &.&.&.x k h k l &.&.&.l R k Q L K s w 4 4 4 @ 6 7 V K L K W Q a g d d d j j j R k k d k R R R ",
"Q R k R R k d a l R k $.l k $.l k k &.&.$.k j j R k R k $.l &.$.s s L K 5 1 5 4 , 2 I I K i ` E y y y a g d j j Q d a a k R R k ",
"Q R k Q R &.l $.$.l R l $.R k &.l R k R k &.k $.&.&.R k $.k R R %.2.! T L K K K L K K L R P j u u a d d d j R &.R R Q Q Q R R R ",
"Q R R x R k $.k $.R $.l R l R x Q k $.&.R x R R R k R #.R x R R R R _ _ L L L U K K d k R R j g d d k k k j R R R R Q Q Q Q R R ",
"` R Q Q &.R R R R R Q R Q R Q R R R Q ~ Q R Q R R R Q R R R Q Q R R R W W L Q W R R R R R l l j k R ~ R Q R ~ Q Q W Q Q Q R Q Q ",
"` Q Q Q Q R ~ Q R R $.Q ~ Q Q Q ~ Q Q Q Q Q Q Q =.R Q Q Q R Q ~ R R Q W R R W R Q Q E ;.R Q E E Q Q ` R R R Q Q Q Q Q Q ! Q ! Q ",
"Q Q Q ! Q Q Q Q Q Q Q ~ $.Q Q ~ Q Q ! Q Q ~ ~ Q Q Q Q ~ Q ! Q Q Q R Q Q R R R W k x $.l k k k R Q ~ ~ Q ( Q Q ` Q ~ ` Q R ! Q ~ ",
"` Q Q Q ~ Q Q ! Q ~ Q Q Q Q Q Q Q Q Q Q Q Q Q Q Q Q Q Q Q Q Q Q $.R ~ Q R l k l k k k R k k k R Q Q Q _ Q Q ~ Q ` Q Q Q Q Q Q Q ",
"~ Q ~ Q Q ` ~ Q ! Q Q Q ~ Q Q ! R ~ Q Q Q ~ Q ` Q ~ ~ Q Q ~ Q Q ~ ~ Q Q R R l k l x $.$.:.Q :.! Q _ _ Q ` ` ~ ` ` ~ ~ ` ` ~ ~ ` ",
"o.o.o.o.o.( o.o.o.o.o.o.o./ o.o.o.o.o.o.o.o.O.O.O.o.o.o.o.o.} ( 7.+.+.T o.7./ / +.T 2.2.7.2.} } O.O.o.O.O.o.o.o.o.o.o.o.o.o.o.o."
};
