/* XPM */
static char *_3c3c4bb6f5c41afb78f7b14654a1420D41hKFEzsC51uVfU[] = {
/* columns rows colors chars-per-pixel */
"64 64 135 2 ",
"   c #BEAD7F",
".  c #C7B47E",
"X  c #BCB68E",
"o  c #BCB594",
"O  c #B5B398",
"+  c #BAB39A",
"@  c #BDBA9C",
"#  c #BDBBA3",
"$  c #C4B686",
"%  c #CAB784",
"&  c #C4BA85",
"*  c #C8BB82",
"=  c #C4B68C",
"-  c #C9B789",
";  c #C5B98E",
":  c #CBBA8C",
">  c #C1B793",
",  c #C4B994",
"<  c #CBBD93",
"1  c #C3BD9B",
"2  c #C9BE99",
"3  c #C2BDA3",
"4  c #CDC697",
"5  c #C6C09D",
"6  c #CCC29B",
"7  c #D6CA96",
"8  c #D2C69D",
"9  c #D6CA9D",
"0  c #DBCC9F",
"q  c #E7CE8E",
"w  c #EED08F",
"e  c #E7CF93",
"r  c #E9CF93",
"t  c #E4CE9B",
"y  c #E8CF9B",
"u  c #E7D296",
"i  c #EBD295",
"p  c #E5D29D",
"a  c #EDD49A",
"s  c #EED99D",
"d  c #F3D493",
"f  c #F4DA97",
"g  c #F0D69B",
"h  c #F4DB9D",
"j  c #F9DD9D",
"k  c #F3E097",
"l  c #F5E09C",
"z  c #F9E19C",
"x  c #C8C4A6",
"c  c #CFC8A0",
"v  c #C3C2AE",
"b  c #CECAAA",
"n  c #D4CCA5",
"m  c #DCCEA4",
"M  c #D4CDAC",
"N  c #DCCFA9",
"B  c #DED1A6",
"V  c #D6D0AF",
"C  c #DCD1AB",
"Z  c #CBCAB8",
"A  c #D1CEB6",
"S  c #D8CEB3",
"D  c #D3CEBC",
"F  c #D5D1B5",
"G  c #DAD4B5",
"H  c #D4D2BD",
"J  c #D8D5B9",
"K  c #DEDBBC",
"L  c #E0CEA1",
"P  c #E4D2A4",
"I  c #EAD5A4",
"U  c #E6D8A5",
"Y  c #EDDBA5",
"T  c #E4D4AA",
"R  c #E9D7A9",
"E  c #E6D8AA",
"W  c #EDDCAC",
"Q  c #F7DEA3",
"!  c #FCDFA3",
"~  c #F8DDA4",
"^  c #F8DEA4",
"/  c #F2DDAA",
"(  c #F4DDA9",
")  c #F4DFA9",
"_  c #F7DEAB",
"`  c #F3DDAD",
"'  c #F0DEAE",
"]  c #F4DDAD",
"[  c #F9DBAA",
"{  c #F8DDA9",
"}  c #F8DCAA",
"|  c #E3D7B1",
" . c #E5DBB7",
".. c #E9DAB1",
"X. c #EEDCB1",
"o. c #EDDEB2",
"O. c #EFDFB4",
"+. c #ECDDB7",
"@. c #E1D7BA",
"#. c #E2DDBC",
"$. c #F2DEB1",
"%. c #F2DFB3",
"&. c #EEE1A6",
"*. c #EEE1AC",
"=. c #EFE1AF",
"-. c #F3E2A2",
";. c #F4E1A1",
":. c #F5E0A3",
">. c #F7E2A2",
",. c #F3E1A6",
"<. c #F4E1A4",
"1. c #F8E2A3",
"2. c #FBE3A2",
"3. c #F9E0A6",
"4. c #FCE0A5",
"5. c #F3E3A8",
"6. c #F5E1A8",
"7. c #F5E3A9",
"8. c #F3E1AC",
"9. c #F3E0AF",
"0. c #F3E1AF",
"q. c #F9E0A8",
"w. c #F8E3A8",
"e. c #FAE3A9",
"r. c #FFE4A8",
"t. c #F8E3AD",
"y. c #EEE0B2",
"u. c #F4E1B0",
"i. c #F4E2B1",
"p. c #D5D5C3",
"a. c #DAD5C3",
"s. c #DED9C3",
"d. c #DDD9CB",
"f. c #E2D9C2",
"g. c #E3DDCA",
/* pixels */
"[ ^ ^ ^ Q Q ) ^ Q ^ ^ ^ ^ Q ( ^ h Q Q 1.~ h j :.Q h 1.~ h 1.~ ~ Q :.1.~ h h 1.~ 1.~ 1.~ h Q 1.w.7.5.5.-.:.:.j j z z z l Q l -.-.",
"[ ^ ^ ^ Q ^ ^ ^ Q Q ) Q Q Q ^ ^ Q Q ~ h ~ 1.~ 1.Q ~ 1.Q Q ~ ~ l j ~ ~ h 1.~ h ~ ~ ~ h ~ 1.h g s Y h Q :.3.~ h h j j h h h l :.Q ",
"} ) Q Q ^ ^ ^ Q ) ^ Q ^ ~ ~ Q Q 1.~ ~ :.~ ~ 1.h ~ 1.h ~ j :.~ l :.h 1.1.j ~ 1.~ 3.~ ~ ~ 3.~ g i s s h -.~ h g i ^ ^ :.:.>.:.-.:.",
"[ Q Q ^ ) Q Q ^ ^ ^ Q Q Q ) Q ^ ~ 1.~ j l ~ ~ ~ h h ~ 1.~ :.Q ~ Q ~ ~ Q :.1.h ~ Q h Q ~ ~ h f i f g h h ^ g a y Q Q Q Q :.l h h ",
"[ ^ ^ ^ ^ Q ^ ^ ^ ) ^ Q Q 6.~ ~ ~ 1.~ Q :.j ~ ~ 1.~ :.j Q Q Q Q Q 1.~ l Q j Q Q g g h h a i i d w i d h ^ [ / / u.8.u./ ~ :.Q h ",
"} ^ ) Q ^ Q ) Q ^ Q Q ^ ~ Q ~ Q h 1.~ Q ~ ~ :.~ h ~ ~ Q ~ :.~ l Q Q Q ~ ~ :.~ :.g h h h d a a h d d g Q Q ` $.$.O.o.$.` ` ) 3.r.",
"} ^ ^ Q Q ^ ^ Q ^ Q ) ^ Q ^ Q Q g h h :.~ 1.Q h 1.h 1.:.h ~ l ~ h 1.Q Q Q ~ h 1.h 1.~ 1.Q h Q 1.j j j ^ ` X...| C N N L L I Q Q ",
"} ^ Q ^ Q ) ^ Q ^ Q Q ^ Q ^ ^ ,.g g Q j ~ ~ 1.h ~ ~ ~ j 1.~ ~ Q ~ ~ ~ l ~ l ~ ~ h ~ 3.3.3.:.Q j j j 2.[ $.+. .K F M S L T E ] ) ",
"( ) ^ Q ) Q Q ^ / Q Q Q Q Q Q Q 1.~ ~ ~ 1.~ ~ h 1.Q h Q 1.^ 1.~ h ~ h 1.Q ~ l :.~ Q ~ Q :.~ Q ~ ! h 3.0.  ; G J F J o , : - P p ",
"[ Q Q ^ ^ Q ^ ^ ^ Q Q Q Q } ^ Q h Q h 1.~ ~ 1.h ~ ~ 1.h h h ~ ~ 1.~ j ~ Q ~ ~ Q j :.~ l Q j j :.^ h 0.i.< 6 M b Z F @ 5 , : P P ",
"[ ^ ^ ^ ^ ^ ( ^ ^ / Q Q ^ ^ Q Q h Q Q h h ~ 1.~ h ~ ~ ~ ^ h h 1.:.~ :.Q ~ l ~ ~ :.Q Q ~ ~ :.Q ~ ^ ^ ~ 0.0 n 5 o @ 5 o o , : P I ",
") ^ ( Q Q Q Q Q ^ Q h Q / ^ } Q Q ~ 1.Q 1.h h ~ h ~ ~ 1.h ~ h ~ ~ 1.h ~ Q ~ l 1.~ Q j :.Q ~ l :.^ 3.Y ,.E B 6 o X 1 X ; : : L I ",
"[ ^ ^ ^ ) ^ ^ Q ~ ~ ~ ^ ^ ^ ^ ) Q ~ 3.~ Q Q h ~ 1.1.~ ~ Q h ~ ~ j :.j Q Q 1.~ h h 1.~ Q :.~ ~ j h 2.h 0.6.y.m B T T T T I I [ 6.",
"[ ^ Q ~ Q ^ Q ^ Q Q ~ ^ Q g Q h h Q 1.~ Q h Q ~ ~ h h h Q ~ ~ 1.~ Q :.Q Q Q :.Q ~ ~ l ~ :.j 1.h f 2.h Q Y Q I U P I I p p y a ~ ",
"} ^ ^ Q Q Q ^ ^ a h Q Y a a r a i s Q Q j Q h 1.Q h g g h ~ ~ Q h ~ ~ ~ ~ Q Q Q l l ~ Q ~ Q :.Q j z f z i a r i ^ / ~ ~ ^ ! ! r.",
"} ^ ^ / Q ^ ^ ^ a h Q Q g r r a u a h ~ Q h ~ :.j f a a g ~ ~ Q 1.~ j :.j Q :.j ~ ~ Q Q Q ~ ~ j h l f z i i r r ^ Q ~ ~ j ^ f ^ ",
") ^ Q Q / ^ ^ ^ Q Q ,.~ :.Q ~ Q I I p a a a h 1.z j ~ 3.>.~ } 2.[ ! ! 1.~ z j ~ h Q Q Q ~ ^ [ ! 1.j l Q Q Q ~ Q Q Q Q ~ } 3.1.~ ",
"_ ^ ^ ^ h Q ^ ^ ~ Q ~ ~ Q ~ ~ 6.a Y Y s s h h z h h h h h ~ ~ ~ ! [ ~ ~ ~ ~ h h h Q ~ ~ ^ [ [ ^ ~ ~ ~ ~ ~ ,.Q Q ~ Q Q Q ~ ~ ~ Q ",
"] Q Q ^ Q Q ^ Q ~ ~ Q Q ,.~ ~ Q Q Q Q Q h h h 1.3.3.1.3.~ :.~ ~ ! [ Q h ~ h Q Q g g h ^ ~ ~ ~ ~ ~ Q ~ ~ ~ ~ Q ~ ~ Q Q h h Q Q ~ ",
"} ~ } ^ Q / Q ^ ) Q 1.~ ^ ^ Q Q h l -.h z ~ :.Q ~ ~ Q Q Q Q :.~ ~ j Q Q ,.3.,.,.s h h Q Q h h h Q ~ ~ 1.Q ~ 1.~ ,.~ I h Q Q ~ 3.",
"[ ^ Q Q Q h Q ^ ~ Q Q ~ Q ~ 1.h z z l l :.:.Q 6./ 6./ / ,.,.6.&.~ h l Q ,.,.,.6.Y ) ,.:.:.h z j ~ :.^ ^ Q Q Q ,.Q Q Q / Q / Q Q ",
"[ Q / Q Q / ^ ^ Q ~ 6.~ Q ~ ~ Q z k h l Q Q W W $.W y.W W &.W &.:.&.,.&.&.Y W Y Y Y Q ,.:.l l z 1.h ^ ^ ~ ,.~ ~ Q Q Q Q Q ~ 1.Q ",
"( ^ a g Q ^ ^ Q ^ ^ ~ ~ Q ~ Q Q z k h ,./ ` T T m C C C B n 9 7 &.&.&.&.W U P P I U U Q l l h l ~ :.^ ^ ~ ,.~ :.Q Q Q Q ~ ~ ~ ~ ",
"[ a a a g [ Q Q ,.~ :.~ -.:.~ Q k k -.6.W E N M S G G V V b c 4 =.&.=.W E P N n P U W 8.w.z z l h :.^ ^ ~ Q ~ ~ Q Q Q Q ,.~ ~ ~ ",
"[ ^ ^ ^ ) ~ ~ :.~ ,.~ ~ Q Q Q Q l -.5.i.9 N @.f.g.a.D D K s.J n & * W W C m = = = : m I a 3.f 2.Q ,.~ ~ 1.~ Q Q Q Q ~ ~ ~ Q ~ ~ ",
"[ ^ Q ^ Q ,.Q ~ ~ ~ Q Q h Q ~ ~ -.Y U y.N G f.s.g.d.p.p.a.a.J V = : o.E m m = < - < I R 6.e.h :.Q ~ ~ ~ ~ ~ ~ ~ Q Q Y Q Q Q ~ Q ",
") ^ Q Q ~ Q Q ^ 1.~ Q / Q / ~ / :.i.i.y.< o + # D p.p.Z v # # 1 & * W W T ..0 | P P u.i.0.Q p u i r r i a a Q ~ } ~ Q Q Q Q ~ 1.",
"( ^ ^ ) ~ ~ ~ Q Q Q Q Q ~ 1.~ Q Q t.i.o.< > o 3 Z H D Z 3 @ + 1 : - m P L T L L W U W ,.~ Q a i r i e a a Q ~ ~ Y Q ~ Q / Q ~ ~ ",
"] ~ ^ Q Q Q ^ ^ Q Q ~ ~ ~ ~ Q Q ^ / t L t L 6 o , 1 5 @ @ X > , I y / ` / i.i.0.Y Y u u a i a i a Q a a g g a g a g ~ g a a g ~ ",
"[ ^ ^ ^ Q ^ ^ ( Q Q / ~ Q Q Q Q ^ ^ y a I P : & X ; ; > ; ; : : t t p p p [ t.:.7.5.s a i q a i a g g g a a i a a Q ~ / a i h ~ ",
"( ~ ^ ^ ) Q ^ Q Q Q a a a h Q Q f 4.! ! ^ Q p U U U B U P U P L ] [ ~ ~ a i h h k l a h l g r.3.Q / Q ~ ^ 0.^ ^ Q Q ~ Q Q Q ~ } ",
"[ ~ ^ ^ ^ ^ Q Q ~ Q a e i a h ~ j ! d ! ^ 8.u u u p u p p I I a ^ } :.l i i l l l z k 2.w.h ~ h Q ~ ~ ~ ^ ^ ^ Q Q Q Q Q Q ~ 1.~ ",
"~ :.Q j Q Q :.~ Q Q :.~ ^ ^ ~ :.Q Q Q ^ ) Q Q Q ^ a a y Q ( Q / ^ ^ :.^ ^ h 3.l z Q h h 1.~ Q :.~ Q Q Q ^ ^ ^ Q Q Q ~ ~ :.:.~ h ",
"~ ~ Q :.:.Q j ~ Q Q j >.l :.h Q ^ Q ^ ^ ^ Q ^ ^ Q Q g g Q ~ Q Q ~ ^ h Q l ^ ^ ^ ~ h 1.~ l ~ ~ l ~ z Q Q 1.^ z Q h ^ l ~ ~ j ~ 1.",
"~ Q 1.~ ~ j ~ l Q Q ~ Q ^ Q :.j ^ ^ ^ ^ ^ Q Q ) ( Q Y Q Q Q ^ ^ ^ ~ ~ ~ ~ :.Q ^ Q 1.Q Q ~ l ~ ~ 1.~ j Q Q h Q Q 3.^ h :.:.Q Q ~ ",
"~ ~ h ~ Q :.~ 1.j :.^ h ^ Q ~ Q Q Q ) Q ^ Q Q ^ ~ ~ Q Q Q Q ^ Q Q Q j :.j ~ ^ h Q Q Q j Q ~ Q Q h ~ :.~ Q Q Q Q ^ Q ~ ~ j Q ~ l ",
"~ Q Q Q j Q Q h Q Q Q ~ Q Q ~ ~ ^ ) ^ ^ Q ( ^ Q ^ ^ ^ ( Q Q / Q Q j ~ l :.h 1.~ ~ Q Q Q ~ Q ~ 1.h 1.~ ~ h l Q Q 1.Q l ~ Q Q Q ~ ",
"~ ~ Q :.:.~ :.~ Q 1.1.h j Q Q l Q Q Q ^ Q Q ^ ^ Q ^ ^ ^ ^ Q Q Q Q :.Q ~ ~ Q l ~ l ~ 1.Q :.:.j h h ~ ~ ~ h h g Q h Q ~ Q Q 1.1.h ",
"~ ~ ~ Q ~ Q Q :.1.h ~ h 3.~ 1.h ^ ^ Q ^ Q ^ ^ ^ Q Q ^ Q ^ ^ ~ ^ 1.Q ~ Q :.j ~ Q ~ Q 1.h j Q ~ ~ Q h 1.h g i g d ~ 1.~ Q 1.h ~ h ",
"~ ~ l Q l Q ~ j ~ ~ ~ 1.h ^ ^ ~ ^ ) Q Q Q ^ ^ ^ ~ / Q Q ~ ~ ~ ^ Q Q 1.h ~ ~ :.Q l ~ ~ Q ~ :.1.h Q ~ ~ h a i i i h ~ l ~ ~ ~ ~ 1.",
"a i i i g g h ~ ^ h g g h 3.^ ^ ^ ^ Q h i r a a r a Q Q Q Q r r h ~ 1.4.^ ~ ~ h 1.1.~ ~ 1.~ ~ ~ g g h ~ ~ h g g g g h ~ 1.~ j Q ",
"a i i i g h ~ ~ ^ Q h g h 1.1.Q Y Q ~ Q h a a a a a Q Q ^ Y h g ~ 1.~ ~ h Q Q ~ ~ h ^ h h ~ h 1.g h Q ~ ~ Q h h h h h ~ ~ ~ Q h ",
"a a a g h h ~ 1.Q h h h ^ ^ 3.Q i g ^ ~ Q g i r a a a a g h Q Y 1.h h h h h h 1.:.Q ~ Q ~ 1.Q Q h Q 1.1.1.~ h h h Q 1.1.~ ~ Q Q ",
"a g g h h ~ ~ 1.Q Q Q j 1.^ ^ Q i a / ~ Q Q g a Q s h a g g Q Q ~ ~ Q h g h Q ^ ~ ~ l ~ h Q 1.~ h ~ h ~ ~ Q 1.h 1.~ ~ h h Q ~ 1.",
"Q h h Q ~ 1.h ~ ~ h :.3.^ ^ Q Q Q ^ ^ Q ^ Q Q / ~ ~ Q Q / Q ~ ~ ~ ~ ~ Q Q h Q Q j :.Q Q Q Q ~ l 1.l ~ Q Q ~ h ~ ~ 1.~ 1.1.1.~ ~ ",
"~ ~ ~ ~ ~ Q Q h Q :.^ ^ Q Q Q Q ^ ^ ^ Q Q Q ~ Q ,.~ ~ ~ Q Q ~ ~ Q z ,.^ Q Q h Q ~ Q Q Q Q ,.Q Q ~ ~ Q h Q h 1.~ 1.~ ~ h ~ h ~ 1.",
"~ ~ ~ 1.~ j ~ :.j ~ Q Q Q Q Q Q ^ Q Q / Q ^ Q Q ~ Q ~ ~ Q Q Q Y Q ~ >.^ Q ~ Q Q h Q Q Q Q ~ l Q ~ ~ 1.h Q Q 1.h ~ h ~ Q h ~ j Q ",
") ~ Q j :.~ ~ 1.Q Q ~ Q Q h Q Q Q Q ^ ^ ^ ~ [ Q ~ ~ 1.~ ~ 1.1.Q ~ :.^ Q Q ,.W 6.6.~ 6.Q Q Q ~ j ~ 1.~ ~ 1.~ ~ ~ Q ~ Q 1.3.:.Q Q ",
"^ ^ ^ ^ ^ ^ ^ ~ ~ Q Q ^ ^ ^ Q Q Q :.~ ~ ~ 1.Q Q Q 1.~ Q ~ ~ ~ ~ Q ~ 8.$.0 n C C 6 8 o.u.3.h 4.j h ~ 3.3.[ Q Q ^ / ~ Q Q Q ) ) ~ ",
"~ ^ ^ ) Q Q ~ Q ^ ^ :.Q ^ ^ ^ Q Q Q ~ :.~ ~ ~ ~ ~ ~ Q ~ ~ Q 1.h Y 6.u.o.E V F b M n | W 6.h 4.j 3.1.Q Q Q ^ Q [ ~ ~ ) ~ Q Q ~ ~ ",
"^ Q Q Q h Q h 1.Q Q Q Q Q Q Q Q ~ ~ ~ j Q Q 1.~ Q Q Q Q Q :.1.~ 6.U P m G K J J A b 8 < p i i i ! Y a i h ^ ^ Q Q ~ 1.~ Q Q ~ ~ ",
"^ Q Q Q ^ ^ 1.:.Q Q Q Q Q Q :.Q ~ 1.~ :.Q Q ~ :.Q Q :.Q Q Q Q ~ u.u.m m  .#.F H F b 2 = P p u i ^ g a a Q ^ ,.h / Q ~ ~ Q ) Q Q ",
"[ h h 1.1.1.:.j l Q h Q h Q ^ h ^ 1.h ^ h ^ 1.z h :.h 1.j h h :.$ % $ 1 M M @ O 3 @ , ; U I a i ^ ^ Q h ^ ^ 3.:.Q Q ~ Q g ~ Q Q ",
"~ ~ h l 1.^ h h ^ j 1.j :.z ^ z z ^ 1.j z 1.h h ~ z ~ l j 1.Q ~ * $ : 6 M M x 1 o o 1 < P p p a ~ h j h h ~ h h ~ Q h h ~ :.Q Q ",
"( Q h ^ j h g i h 1.j :.j :.l ^ h z ^ z ^ h h h h 1.h Q Q Q h Q I P P 9 2 > > > , 2 C B I P Q Q a i a a g g g g 1.h f g h ~ ~ h ",
"[ j h j j h a w h j 1.h Q j 3.h h h 3.^ >.h g g :.j 1.j z Q 1.Q p P R P < = 2 , = , P U P t } [ i i r i a g g g ~ g i a g ~ ~ Q ",
"^ z 1.h h Q Q Q 1.j j Q l :.h 1.h Q h j h ^ h z j :.Q l l :.Q Q ~ 6.] W I L L T P L P I Q Q g r r i a g s g Q ~ Q j Q Q Q Q Q Q ",
"[ h ^ :.1.h Q Q Q Q :.h ^ j Q j Q Q Q ^ 1.h :.Q :.h Q Q ~ h Q Q / ~ [ ( I I I Y I I a g Y Q g d i g h h h g Q Q Q :.~ Q Q Q ^ :.",
"[ ^ ^ Q Q Q ^ Q ~ ~ Q ~ Q ~ ^ Q ^ ^ Q ~ ^ Q ^ Q ~ 1.~ Q ~ Q ~ 1.Q ^ ^ ^ Q Y [ [ Q Q ~ ^ ~ j j f Q Q ^ Q Q g ` Q ~ ~ ~ -.~ ~ ^ ,.",
"~ ~ ^ ^ Q ^ Q Q ~ :.~ :.3.~ ~ ,.) Q ^ ^ ^ ^ ^ ^ ~ Q ~ 1.~ ~ ~ ~ Q h ^ ! ~ j ~ ~ ~ ~ ! 2.! ~ ! ! Q ^ } / Q Q ^ ^ ~ 1.~ ~ ~ ~ ~ ^ ",
"( ^ ^ ^ ^ ^ ^ ^ ^ ) ^ ^ ~ ~ ~ Q ^ ^ ( ^ ) ^ ) ^ ~ ~ ~ ,.~ ~ ~ ,.~ ~ ^ Q j ~ ~ j j ~ j h h h h Q Q } ^ ) ~ ^ ( ^ ^ [ ( ^ 1.~ ~ ) ",
"[ ^ ) ^ ^ } ) ^ ^ Q ^ ^ ~ 1.~ ~ ^ ^ ^ ^ ^ ^ ^ ^ 1.~ ~ ~ ) ~ ~ ~ ^ ,.Q Q Q h j h h h l ~ h h Q Q Q [ ^ ^ ~ ^ [ ^ [ ^ ~ ^ ) ~ ~ ^ ",
"( ~ ^ ( Q Q } Q } Q ~ ) ~ ~ / Q Q ( Q Q ^ [ [ ~ ^ ) ~ ~ ^ ~ ) ~ ,.~ Q ^ Q :.Q h Q ,.:.,.,.:.~ ~ ^ ( [ ( [ [ ) [ ~ ) [ [ ( ) ) [ ",
"$.` $.$.$.$.$.$.$.o.$.$.o.$.$.u.$.$.$.$.$.o.$.$.o.$.o.u.` $.$.o.0.o.o.` 8.$.u.` 6.W &.u.u.u.o.o.%.$.$.$.%.%.%.$.$.o.$.$.$.$.$.o."
};
