/* XPM */
static char *b31cdc4ef9e34d94e5a274e44d5b44ceATIzxtG4iq8W499L[] = {
/* columns rows colors chars-per-pixel */
"64 64 161 2 ",
"   c #000000",
".  c #0C0201",
"X  c #090909",
"o  c #1C0402",
"O  c #121212",
"+  c #270906",
"@  c #300B06",
"#  c #360D08",
"$  c #3D130F",
"%  c gray23",
"&  c #4C160F",
"*  c #421511",
"=  c #4E1B15",
"-  c #541912",
";  c #5E211B",
":  c #64211A",
">  c #72251C",
",  c #722B23",
"<  c #792E26",
"1  c gray31",
"2  c #505050",
"3  c gray36",
"4  c #636464",
"5  c #6E6F6F",
"6  c #717171",
"7  c #7C7D7D",
"8  c #85332A",
"9  c #923226",
"0  c #9D3629",
"q  c #92392F",
"w  c #953A30",
"e  c #A1382A",
"r  c #AC3C2E",
"t  c #A13F35",
"y  c #AE3E31",
"u  c #A54136",
"i  c #AB4439",
"p  c #B54031",
"a  c #BD4333",
"s  c #B1463B",
"d  c #B6483D",
"f  c #BB4A3F",
"g  c #C34535",
"h  c #CB4838",
"j  c #D44C3B",
"k  c #DB4F3D",
"l  c #DE503E",
"z  c #E1513F",
"x  c #BD4B40",
"c  c #C44F42",
"v  c #CB5245",
"b  c #EA5642",
"n  c #ED5845",
"m  c #F45945",
"M  c #BEAD7F",
"N  c #C7B47E",
"B  c #828283",
"V  c #8A8B8B",
"C  c #949594",
"Z  c #BCB68E",
"A  c #BBB594",
"S  c #B5B398",
"D  c #BEBA9B",
"F  c #A2A3A2",
"G  c #ABACAD",
"H  c #AFB0B0",
"J  c #B6B7B8",
"K  c #BABBBC",
"L  c #C4B686",
"P  c #CAB782",
"I  c #C3B68D",
"U  c #C9B789",
"Y  c #C7B98F",
"T  c #CABA8D",
"R  c #C4B993",
"E  c #CBBD93",
"W  c #C4BD9A",
"Q  c #C9BE99",
"!  c #C3BFA1",
"~  c #C6C09D",
"^  c #CCC29B",
"/  c #D2C69D",
"(  c #D7CA9E",
")  c #E7CE8E",
"_  c #EED08F",
"`  c #E7CF93",
"'  c #E9CF93",
"]  c #E5CE99",
"[  c #E7D197",
"{  c #EBD295",
"}  c #E5D19E",
"|  c #EDD49A",
" . c #EED99D",
".. c #F3D493",
"X. c #F4DA97",
"o. c #F0D69B",
"O. c #F4DB9D",
"+. c #FADD9D",
"@. c #F3E097",
"#. c #F5E09C",
"$. c #F9E19C",
"%. c #C5C2A3",
"&. c #C8C4A6",
"*. c #CECAAA",
"=. c #D8CDA6",
"-. c #DCCEA4",
";. c #D3CDAC",
":. c #DDD1A5",
">. c #DBD0A9",
",. c #D0CEB4",
"<. c #D5D1B5",
"1. c #DAD5B5",
"2. c #D8D5B9",
"3. c #DDD8B8",
"4. c #E0CEA0",
"5. c #E4D2A3",
"6. c #EAD5A3",
"7. c #EDDAA3",
"8. c #E4D4A9",
"9. c #EAD7A8",
"0. c #E6D8AA",
"q. c #EEDCAC",
"w. c #F7DEA3",
"e. c #F8DEA4",
"r. c #F5DDA9",
"t. c #F2DEAE",
"y. c #F4DEAE",
"u. c #F9DBAA",
"i. c #F8DDA9",
"p. c #F8DFA9",
"a. c #E3D7B1",
"s. c #E5DAB5",
"d. c #ECDDB2",
"f. c #EFDEB2",
"g. c #EEDEB6",
"h. c #E1DBBA",
"j. c #F2DEB1",
"k. c #F2DFB2",
"l. c #EFE1AF",
"z. c #F5E1A2",
"x. c #F5E1A3",
"c. c #F9E1A2",
"v. c #FAE1A5",
"b. c #F9E2A5",
"n. c #F3E1AC",
"m. c #F3E0AE",
"M. c #F9E1A9",
"N. c #FAE2AA",
"B. c #EEE0B2",
"V. c #F4E2B1",
"C. c #C1C2C1",
"Z. c #C7C9CA",
"A. c #C9CACB",
"S. c #CECFD0",
"D. c #D4D5D5",
"F. c #DADBDC",
"G. c #DFE0E0",
"H. c #E1E2E2",
"J. c #E7E8E8",
"K. c #EEEFEF",
"L. c #F3F4F4",
/* pixels */
"u.e.e.e.e.e.w.w.w.r.w.x.e.e.e.w.w.O.e.e.w.O.O.v.w.O.v.x.w.e.O.w.e.O.v.w.w.w.w.w.e.e.e.w.w.w.w.v.n.n.#.x.x.v.e.+.$.$.#.#.w.x.x.x.",
"u.e.e.e.r.w.e.w.e.e.w.e.e.r.w.w.w.w.w.w.e.v.e.e.w.e.e.O.w.v.v.x.e.v.O.e.w.$.w.w.e.e.O.v.e.O.O.O.7.x. .x.e.e.O.X.+.+.O.O.O.#.#. .",
"y.e.w.e.e.w.e.r.w.w.w.e.w.w.e.w.x.w.w.+.O.O.v.e.+.w.e.O.w.O.w.x.w.O.v.v.v.w.e.w.e.e.e.e.v.w.O.{  . .x.x.w.o.| { e.e.e.x.x.#.n.#.",
"u.w.w.w.w.w.e.w.e.w.r.e.e.e.e.r.v.e.e.w.v.w.w.e.x.w.v.v.e.w.w.+.w.e.w.O.O.w.v.O.w.O.w.e.w.O.{ { X. .O.O.w.w.| ] e.w.w.w.w.w.#.#.",
"u.e.r.e.e.e.w.e.x.w.e.r.w.e.e.e.e.e.e.w.v.O.e.w.w.w.v.O.v.x.w.w.e.v.w.w.O.w.e.O.o.o.O.O.| { { .._ _ ..w.w.i.i.r.n.y.y.r.w.w.w.O.",
"y.e.w.e.e.e.w.e.e.w.e.w.w.n.w.e.O.w.w.w.w.e.w.v.e.w.O.e.w.w.e.$.O.O.e.x.v.x.e.v.| O.w.o.o.{  .O.......w.i.t.j.j.g.g.f.j.n.r.b.N.",
"u.w.w.e.e.e.w.e.e.w.e.w.e.r.w.w.O.O.O.w.e.e.w.O.w.v.w.v.e.e.w.O.e.+.O.v.v.v.w.w.O.w.v.e.O.O.w.e.$.+.e.w.t.j.s.a.>.>.>.4.4.6.w.w.",
"u.w.w.e.w.w.w.r.e.r.w.w.e.w.e.w.o.O.O.w.v.e.w.O.o.c.e.O.O.v.w.e.x.w.w.w.w.O.O.v.w.e.x.v.v.v.x.+.+.+.e.i.j.s.s.h.<.;.>.>.8.9.t.y.",
"y.e.w.e.r.w.e.w.w.w.w.w.w.w.w.w.v.w.w.e.$.e.w.O.v.w.O.w.w.v.v.e.w.w.o.c.O.v.x.e.O.O.e.+.v.e.w.+.e.o.M.V.Z I <.1.<.<.D R Y U 5.] ",
"y.w.w.e.e.w.w.e.e.w.w.w.w.i.w.w.O.w.O.e.e.e.w.w.w.e.w.O.w.O.w.e.v.w.e.v.e.w.w.w.v.e.w.x.O.e.w.e.e.e.r.V.U ^ ;.*.<.<.D W E U -.6.",
"u.e.w.r.e.e.r.e.e.w.w.w.e.w.w.i.O.e.w.w.w.e.e.w.O.e.e.e.O.w.e.w.w.e.w.O.w.w.w.w.v.c.w.v.w.w.e.w.e.e.w.n.( -.~ D D %.A Z T T 5.9.",
"i.e.e.w.w.w.w.w.r.e.7.w.w.e.e.w.w.w.w.w.w.O.O.v.w.e.e.w.w.O.O.w.O.w.e.v.v.O.e.v.e.o.w.w.x.v.O.w.$.e.7.n.8.5.~ R A W Z Y T T 4.6.",
"i.e.e.w.e.e.e.w.i.e.e.e.r.e.e.e.w.w.x.e.O.w.O.w.w.v.w.e.w.O.w.e.v.x.w.w.w.O.w.O.w.O.v.e.w.w.w.w.O.b.O.x.n.B.:.:.8.8.8.9.6.6.i.y.",
"i.e.e.w.e.u.e.e.w.w.e.e.w.7.w.o.O.w.e.e.e.O.w.w.e.O.O.O.w.w.e.e.v.O.w.w.e.v.e.w.e.v.O.v.O.e.$.+.+.v.O.x.7.e.} 7.4.6.6.} } ] | w.",
"y.w.w.w.w.w.w.w.| o.w.7.o.| ' | { O.w.e.e.O.w.e.e.O.o.6 %             % 6 w.w.w.w.w.O.O.v.w.w.O.#.$.X.#.{ { ' [ r.w.u.e.e.e.e.M.",
"i.e.e.r.w.e.w.w.| w.e.w.| ' ' | [ | O.w.w.w.w.2     = , 8 q t u t t q 8 , =     1 e.v.x.w.e.e.e.+.+.X.v.{ { { ' i.e.e.w.+.+.+.e.",
"y.w.w.w.w.w.i.w.r.x.e.e.w.w.w.w.6.6.} } |  .. < i c v v v v v v v v v v c c x i < . w.w.w.u.u.e.w.o.c.v.x.e.e.e.w.w.w.e.b.e.e.e.",
"u.e.w.w.w.w.e.e.w.w.e.e.w.e.e.r.7.7.7. .O.  i v v v v v v v v v v v v f     : v v i   e.e.e.u.u.e.w.w.w.w.w.w.w.r.w.w.w.e.e.e.e.",
"i.w.e.e.w.w.w.w.e.w.r.w.r.w.w.w.O.w.w.w.O.  ; i v v v v v v v v v v v c u t i v i ;   e.e.w.w.e.e.e.w.e.e.w.w.w.e.w.w.7.7.w.e.e.",
"i.w.i.e.w.w.w.r.w.e.e.w.e.e.w.e.O.#.x.#.w.  *   @ , q u f f c c c c f d u q , @   -   w.w.+.O.O.e.e.e.e.e.e.r.w.r.w.o.O.w.w.e.e.",
"u.w.u.e.w.7.w.i.e.e.w.e.w.w.e.O.$.$.#.#.#.  x i 8 :                         : e j l   x.x.#.+.b.w.e.w.w.e.w.w.e.w.w.w.w.w.w.w.w.",
"y.w.w.w.w.w.e.w.e.e.w.w.w.e.e.w.$.@.#. .e.  x v v n m k j g g a a g g j k m m m m z   w.#.#.#.$.w.e.w.e.r.w.e.e.w.7.w.w.e.e.e.w.",
"u.w.o.o.w.w.e.w.w.n.w.e.e.w.w.w.@.@.#.x.r.  f v v n m m m m m m m m m m m m m m n b   w.#.O.#.#.O.w.e.e.x.e.e.r.w.w.w.w.i.e.u.w.",
"u.| { { 7.w.i.w.w.e.w.e.r.w.w.w.@.#.x.x.l.  x v v n m m m m m m m m m m m m m m m l   n.b.#.$.O.x.w.e.e.e.e.w.w.e.i.w.w.w.e.e.e.",
"u.w.e.e.e.e.w.w.w.e.e.w.w.w.w.w.x.x.n.l.(   x v v n m m m m m m m m m m m m m m m k   6. .x.X.v.w.w.e.e.w.i.w.w.w.w.w.w.e.e.e.e.",
"i.w.r.w.r.w.w.e.r.e.w.w.w.w.w.i.x.7.7.l.-.  x v v n m m m m m m m m m m m m m m n b   7.w.n.O.x.w.i.e.u.w.w.w.e.w.w.7.w.w.e.w.w.",
"i.e.e.e.e.w.e.r.e.w.w.w.w.w.w.w.x.n.V.B.R   f v v n m m m m m m m m m m m m m m m l   n.n.w.[ [ ' ' { { | 7.w.w.i.e.w.w.w.w.u.w.",
"y.e.e.e.w.w.e.w.w.r.w.w.w.i.w.i.7.V.V.B.E   d v v n m m m m m m m m m m m m m m m l   q.r.w. .{ | ' ' { o.o.e.e.7.w.e.e.w.w.w.e.",
"i.w.i.w.w.w.w.e.w.w.w.e.e.i.w.w.M.w.] 6.]   $ w x n m m m m m m m m m m m m m z p =   | | | | { o.o.o.| | o.| o.{ o.w.7.| { 6.e.",
"i.w.w.w.r.w.e.e.w.w.w.w.w.w.w.w.i.e.' | 5.  5 X   - 9 r g h j k k k h g r 9 -   X 7   { { ' { { | o.o.o.o.| | | | w.e.w.| | o.e.",
"y.w.w.e.e.e.e.e.r.7. .o.| o.w.w.+.v.+.e.e.  A.S.G V 4 X                 X 4 C K J.G.  @.O.+.b.b.w.w.w.i.e.i.e.e.w.u.w.e.w.w.e.M.",
"u.w.w.w.e.e.e.w.e.w.| ' ' | w.w.+.e.X.e.e.  A.F.F.K.L.L.J.F.F.D.D.F.F.J.L.L.L.L.L.G.  v.v.O.e.7.w.e.e.e.w.w.e.e.e.w.w.w.w.i.e.e.",
"i.O.v.c.v.c.w.e.v.O.e.$.w.v.w.w.w.w.w.w.e.  Z.F.F.K.L.L.L.L.L.L.L.L.L.L.L.L.L.L.L.H.  O.v.w.w.w.v.w.w.w.e.v.w.e.w.O.b.w.w.v.w.w.",
"e.e.w.o.w.o.e.v.e.e.w.O.w.O.e.v.e.e.e.w.e.  Z.F.F.K.L.L.L.L.L.L.L.L.L.L.L.L.L.L.L.G.  w.w.w.v.O.w.+.w.w.w.w.w.w.e.e.$.O.w.O.+.w.",
"e.e.v.w.w.+.e.O.w.w.w.e.w.e.w.O.e.e.e.e.e.  A.F.F.K.L.L.L.L.L.L.L.L.L.L.L.L.L.L.L.G.  e.w.x.w.w.e.e.w.#.w.+.O.e.w.e.e.e.O.w.x.w.",
"e.e.w.x.w.w.w.w.x.+.w.x.v.O.v.O.w.e.e.e.e.  Z.F.F.K.L.L.L.L.L.L.L.L.L.L.L.L.L.L.L.H.  w.+.w.w.e.w.e.e.e.e.e.e.e.w.#.w.w.v.w.e.w.",
"e.w.w.w.w.w.v.e.w.e.w.O.w.e.w.e.w.w.w.r.e.  Z.F.F.K.L.L.L.L.L.L.L.L.L.L.L.L.L.L.L.H.  w.b.O.c.$.O.e.e.w.w.O.e.e.x.+.v.c.w.O.v.w.",
"i.w.w.e.v.c.O.x.w.w.w.v.w.x.O.v.e.w.e.e.e.  J F.F.K.L.L.L.L.L.L.L.L.L.L.L.L.L.L.L.S.  w.e.w.w.O.O.w.w.w.O.O.O.O.w.w.w.o.e.w.v.w.",
"e.O.O.v.O.O.v.c.w.w.w.e.w.+.e.w.e.r.e.w.e.  O B J J.L.L.L.L.L.L.L.L.L.L.L.L.K.A.C O   w.w.w.e.w.O.w.w.w.o.| { o.w.w.w.v.O.e.o.c.",
"e.e.w.x.v.w.w.o.v.w.v.O.e.e.O.w.e.w.w.w.w.  8 $     4 V F H C.C.C.C.G F V 4     & 0   v.O.e.w.v.w.v.w.X.{ { ' { w.w.w.w.v.w.w.v.",
"| { { { ..o.w.e.w.o.O.o.O.v.e.e.x.e.w.o.[   x v s y 9 > #             # > 9 p j m z   w.w.w.e.O.o.o.O.e.e.w.O.| o.O.O.v.x.e.w.O.",
"| { { |  .o.e.e.v.O.O.o.w.v.x.w.w.e.i.w.w.  f v v n m m m m b b b b m m m m m m m z   w.x.+.w.w.o.O.w.w.e.O.O.O.O.O.w.O.e.e.e.O.",
"| ..| o.O.O.e.e.e.O.O.O.w.w.w.w.` o.w.w.w.  f v v n m m m m m m m m m m m m m m m z   w.w.w.e.w.O.w.e.v.e.w.O.O.O.o.v.w.e.v.e.w.",
"6.o.o.O.w.w.e.e.e.w.e.O.w.v.b.w.[  .w.w.e.  x v v n m m m m m m m m m m m m m m m z   w.v.v.o.w.e.w.O.e.e.w.w.e.w.v.e.w.e.O.e.e.",
"w.O.O.O.w.O.e.w.e.w.w.e.e.e.e.w.w.w.r.e.e.  f v v n m m m m m m m m m m m m m m m z   w.w.w.e.w.O.w.e.O.w.w.+.w.v.e.x.w.e.c.v.e.",
"e.e.e.e.e.w.e.O.v.O.e.e.w.w.w.w.e.e.e.w.e.  f v v n m m m m m m m m m m m m m m m z   x.e.w.v.O.e.e.O.w.w.O.w.x.O.e.e.w.e.o.e.e.",
"e.e.e.e.w.w.w.e.w.e.w.w.w.w.w.w.e.w.e.w.w.  s v v n m m m m m m m m m m m m m m m j   w.O.w.w.w.O.e.v.O.w.w.w.e.w.w.v.v.O.e.O.e.",
"i.e.e.e.x.+.e.e.w.w.w.w.w.O.w.w.w.w.e.e.e.b.+ 8 s n m m m m m m m m m m m m m j e @ r.e.b.w.+.e.v.e.e.v.e.e.e.v.w.O.O.e.v.w.e.e.",
"w.w.e.e.e.w.e.e.e.e.w.e.e.w.x.e.w.w.e.e.e.e.e.%   o > 0 r g g g g g g r 0 > o   % / j.V.M.X.e.X.w.w.M.w.w.w.w.w.r.e.w.w.w.w.r.e.",
"i.w.e.r.e.w.w.w.e.e.w.w.e.w.w.e.w.e.e.e.w.e.e.e.e.e.B 3                 3 B ,.*.;.*.a.7.y.+.b.b.v.v.w.w.w.i.r.i.e.e.e.i.r.w.r.e.",
"e.e.e.w.O.w.w.w.w.w.w.w.w.w.e.w.e.e.O.w.w.e.w.e.w.w.w.w.w.w.e.e.e.6.5.=.a.3.2.2.<.*./ ^ } { { { e.7.[ | w.w.e.w.w.w.r.e.w.w.w.e.",
"u.O.w.w.w.x.w.w.w.w.w.w.w.w.w.w.e.w.v.e.w.w.e.x.w.w.w.w.w.w.w.x.V.V.=.=.h.h.<.<.<.*.W R } } { { e.o.| | o.e.w.w.w.w.e.e.w.w.w.e.",
"u.O.O.+.v.v.x.#.O.w.+.x.w.O.v.+.w.$.w.x.w.$.v.x.O.v.#.+.w.O.w.w.P P L R ;.;.D S ! D R I 8.6.| | b.e.O.O.e.e.b.w.w.w.w.w.w.w.w.w.",
"i.O.O.x.#.v.O.+.v.+.x.O.O.x.O.x.x.+.b.+.O.w.O.X.c.o.+.v.O.v.w.e.P T ^ ^ ;.;.&.! A A W E 8.4.[ [ w.O.w.w.w.w.O.O.e.w.O.O.7.w.w.w.",
"i.+.O.+.v.O.O.{ O.$.O.v.x.+.v.+.#.w.v.$.v.O.X.O.+.c.+.O.v.+.w.x.7.:.( ( R R R A W Q >.5.9.] w.w.| | ..| o.o.O.o.w.O.o.o.o.w.w.+.",
"e.e.O.e.+.O.{ ) +.b.w.+.w.$.O.w.O.O.+.v.x.O.O.o.z.O.x.e.+.x.O.x.} } 7.6.E I E R I R 5.8.6.] u.u.{ ' ' { | o.{ o.e.o.{ o.O.w.w.w.",
"e.v.x.O.+.x.w.O.#.w.O.$.e.w.O.v.O.w.O.O.v.+.O.v.x.O.z.w.w.O.w.e.e.r.y.9.9.6.4.8.] 6.-.6.w.w.o.' ' { o.| o.| w.r.e.e.e.w.w.w.w.w.",
"e.O.w.w.w.O.w.w.w.w.w.e.w.+.x.O.w.w.v.w.w.#.w.w.w.+.w.w.w.w.w.w.e.e.u.w.6.6.6.9.6.6.| 7.w.w.X._ { o.o.7.O.o.w.w.e.e.e.w.e.w.w.w.",
"e.e.e.w.e.w.e.w.w.e.w.e.e.w.e.e.e.w.e.w.w.w.w.w.w.w.e.w.w.c.w.w.w.e.e.u.w.w.w.u.w.w.w.e.w.e.+.+.w.w.w.w.w.w.w.w.e.w.e.e.r.w.e.e.",
"i.e.e.e.e.e.e.e.w.w.w.x.e.e.e.w.r.w.w.w.w.e.e.e.w.b.w.w.w.w.e.w.7.w.e.e.w.o.u.w.e.e.e.b.w.e.+.e.e.e.i.w.w.w.w.e.w.e.e.e.e.w.w.e.",
"i.e.e.w.r.e.e.r.w.e.e.e.e.w.r.e.e.e.e.e.w.e.r.e.e.e.e.r.r.e.e.e.e.e.e.w.w.+.w.w.O.w.+.O.O. .w.w.w.i.w.i.e.w.i.i.i.w.i.w.r.i.w.i.",
"i.w.e.r.e.w.e.e.r.e.r.e.e.e.w.e.e.i.r.e.r.e.e.e.e.e.e.e.w.e.r.e.w.e.e.w.w.w.+.+.+.O.+.w.O.w.O.w.i.w.i.w.e.u.r.e.w.i.w.w.e.e.r.w.",
"u.w.w.i.w.i.w.w.e.i.r.e.e.e.r.e.w.w.i.w.w.i.i.e.r.e.r.e.e.e.e.e.n.w.e.e.w.w.w.O.#.x.x.x.x.b.w.w.w.i.i.i.t.i.i.i.i.r.i.i.w.i.i.i.",
"j.f.j.j.j.j.j.j.j.f.j.j.j.j.t.f.f.y.j.j.j.f.j.j.j.j.j.f.j.j.j.B.f.f.f.q.n.y.y.t.l.q.r.l.l.V.f.f.j.j.j.f.V.j.j.j.j.j.j.j.g.j.j.f."
};
