/* XPM */
static char *_67fc359e7e94b6fa47fe913bb41a429NxdPlrCYlNR4dluV[] = {
/* columns rows colors chars-per-pixel */
"64 64 79 1 ",
"  c #9F9F9F",
". c gray63",
"X c gray64",
"o c #A5A5A5",
"O c #A7A7A7",
"+ c #A9A9A9",
"@ c gray67",
"# c #ACACAC",
"$ c gray68",
"% c #AEAEAE",
"& c #AFAFAF",
"* c #B5AEA0",
"= c gray69",
"- c #EBD295",
"; c #E7D29D",
": c #E4D09F",
"> c #ECD19A",
", c #EFD59C",
"< c #F0D79A",
"1 c #F0D59E",
"2 c #F6DD9B",
"3 c #F1D99C",
"4 c #F1D89D",
"5 c #F6D99C",
"6 c #F5DB9C",
"7 c #F3DD9C",
"8 c #F3DE9D",
"9 c #F6DD9F",
"0 c #F8DD9C",
"q c #F9DD9D",
"w c #FBDF9D",
"e c #F3E09F",
"r c #F9E09D",
"t c #E5D0A2",
"y c #E5D2A5",
"u c #E9D4A3",
"i c #EED7A3",
"p c #EBD5A4",
"a c #E8D4A6",
"s c #EFDDA2",
"d c #EFDEAA",
"f c #EFDEAC",
"g c #F1D9A2",
"h c #F4DAA0",
"j c #F7DDA1",
"k c #F6DDA3",
"l c #F4DEA5",
"z c #F7DEA4",
"x c #F7DDA6",
"c c #F8DFA1",
"v c #F8DFA5",
"b c #F9DCA6",
"n c #F7DBA9",
"m c #F4DEAA",
"M c #F4DDAD",
"N c #F9DBAA",
"B c #F8DCAA",
"V c #F9DEAC",
"C c #F0DFB0",
"Z c #F2DEB2",
"A c #EEE0AF",
"S c #F3E2A2",
"D c #F7E0A1",
"F c #F4E1A3",
"G c #F7E2A2",
"H c #F3E1A6",
"J c #F6E1A4",
"K c #F8E0A1",
"L c #F8E0A4",
"P c #F3E3A8",
"I c #F5E3A9",
"U c #F2E0AD",
"Y c #F2E0AF",
"T c #F8E3A8",
"R c #FCE1A8",
"E c #FFE4A8",
"W c #F8E3AD",
"Q c #F9E0AE",
"! c #F3E0B4",
/* pixels */
"Nzzzzzzzzzzzzzzz9kkkkKkckckckrzKkckckckcKvvckkkLIPPDFKKqrq929eeS",
"NzziikzzzzzzziizkkqDckckckckkkkkckckckckckzck954sssFLKk502;;97ee",
"Nzu                                                         *uDD",
"Nz*    .           .           .                              8e",
"Nz  .%%======%============%========%============&=====&====   kr",
"Nz  %%%=====%%%==+========+%=====%%%============+++===%+&==&  RL",
"Nz  %==%+===%%%==+%=======%===============%%====%%%====%%&=&  gh",
"Bz  %=======%=============%%==============%%==============&&  MQ",
"Bz  ================================&=======================  yy",
"Bz  ===%%=============%%%=========&%%================%%=====  yt",
"Bz  ===%%=============%%+==========&&=================%%====  ta",
"Bz  =====+%%oo==============================================  :p",
"Bz  =====%%%%==========%====%===========%%======%+==========  mW",
"Bz  ===================%===%%%%%========%+======+%==========  ,h",
"Bz  ======%===========%%=====%==========%===================  vE",
"Bz  ======%===========%%====%%=============================&  5c",
"Vz  ==================%o+%===%==%#%%%%=+#=%%================  cc",
"Bz  ====%%============%%=====%==%+++++%+#=%%================  vz",
"nz  ====%%====%%======%%=========================&=========%  zv",
"nv  ==========%%=========%%=====================%%=========%  kb",
"Nz  ===========%=========%%====%==%%============%===%%======  zz",
"nz  =========%%%==============%%=#%%================%=======  vk",
"Vh  ==========================%==+==========#====%%=%=======  vz",
"n4  ==========%%%================#==========#====%%========&  bv",
"Vz  ==========%%%====%%=====%===========================##==  vv",
"nz  ===========o%%====%%====%==================%%===========  vh",
"Vz  ==========%%========%===%%=================%%===========  vv",
"nz  =======%+===========+==============================%%===  vv",
"Bz  ======================%==========##===========%%===&====  ij",
"Bz  =====================%%================##=====%%========  1v",
"Bz  ========================================================  vc",
"Bz  ============================#=====+=====================  vv",
"Nc  ============================#===========================  hc",
"kk  ====================&+============+%========&%=======+%=  cv",
"zz  ===%%=======&=======%+=====================#+%==========  zc",
"Lk  ===%%=====%%#&=====&====&%&==============##%#====%%=====  ch",
"vk  ==========%%&=====%&=====%&===============%==##==%%=====  zc",
"vk  ==================%&======&=========%+==================  cz",
"vk  ======%%======================#%=======&===========+====  zk",
"vc  ======%%======================%========+===============&  ck",
">-  ===================================+=========%==%=======  cc",
">-  =============================================%#=##==%===  hc",
">>  ==========%&=============#&========================##===  cj",
"1<  ==========#&=============%&=============================  cv",
"jj  ========================================================  kc",
"bc  ========================================================  kv",
"Nk  ================================##===========%==========  ch",
"Nv  =============================================+==========  vv",
"vk  ============&=============================+========%%===  Nv",
"zn  &===========&%=======+====================%=======#%%===  vv",
"Nh  &===========%+=======%============================#=====  kk",
"zc  ============&%=================+%=======================  kv",
"Nk  &==========#==========#+&===================#========##=  kc",
"b9  ====&======#==========&%====================#========&&=  vc",
"Nk  ===&#&===%+=============================%%==============  ch",
"zK  ================&%==================+===%%============&=  vc",
"ck  ================%O============%%%===%===============#===  gc",
"Nz  =====##==========&=============%====================#===  Nk",
"vc  ===============&============================+===========  kk",
"Nv  .=%%==========%&==========%%================&==========   zv",
"Nz                                                            zz",
"nzp                                                          uzn",
"nzznknzzzzkNnvvczmnzznvznznzkvvkPzzzkDk9KDDKFFllPnnzVRVvFNnnnznn",
"ZZMZZZZZZZZMZMZZZMZMZZZZZZZZZZZZAZdYYYYYddfA!!CCZZZZZ!ZZZZZZZZZZ"
};
